<svg xmlns="http://www.w3.org/2000/svg" width="2000" height="396" viewBox="0 0 2000 396">
<g>
<path d="M 1936.00 394.90 C1919.51,395.61 1921.98,395.71 1958.75,395.85 L 2000.00 396.00 L 0.00 396.00 L 588.25 395.85 C905.72,395.76 1158.72,395.36 1158.72,394.95 C1158.72,394.95 1158.63,394.94 1158.44,394.93 C1127.72,393.64 1102.35,387.73 1080.63,376.81 C1056.11,364.49 1042.96,336.78 1044.26,300.17 C1044.82,284.49 1046.31,277.97 1051.96,266.50 C1059.32,251.57 1069.29,241.91 1085.50,233.99 L 1095.50 229.10 L 1163.00 216.49 C1225.10,204.89 1230.97,203.62 1236.43,200.64 C1239.70,198.85 1243.75,195.69 1245.43,193.60 C1248.26,190.10 1248.50,189.22 1248.50,182.08 C1248.50,175.22 1248.16,173.79 1245.47,169.42 C1243.76,166.64 1240.35,163.09 1237.62,161.26 C1229.92,156.08 1224.27,154.77 1207.50,154.26 C1186.58,153.63 1177.17,156.19 1167.41,165.19 C1162.55,169.67 1156.00,181.65 1156.00,186.05 C1156.00,186.45 1156.01,186.82 1156.03,187.16 C1156.06,188.13 1156.09,188.91 1155.79,189.53 C1154.60,192.02 1148.18,192.02 1116.04,192.00 C1113.20,192.00 1110.15,192.00 1106.89,192.00 L 1059.00 192.00 L 1059.00 183.96 C1059.00,156.31 1073.32,132.39 1098.65,117.74 C1117.71,106.71 1149.05,99.34 1187.00,96.96 C1230.57,94.22 1284.96,101.69 1308.14,113.60 C1321.15,120.29 1332.73,131.83 1338.65,144.00 C1342.69,152.32 1345.08,159.47 1346.50,167.50 C1347.18,171.29 1347.37,388.96 1346.70,389.63 C1345.88,390.46 1302.27,394.13 1284.50,394.87 C1283.92,394.89 1283.63,394.91 1283.63,394.94 C1283.63,395.39 1388.83,395.70 1545.50,395.70 C1694.50,395.69 1810.49,395.38 1810.49,394.98 C1810.49,394.97 1810.33,394.95 1810.00,394.94 C1778.66,393.51 1754.00,387.62 1731.76,376.27 C1714.46,367.44 1702.32,349.70 1697.50,326.20 C1694.46,311.38 1695.41,288.53 1699.59,276.20 C1708.86,248.80 1729.26,232.44 1761.50,226.52 C1775.03,224.04 1793.34,220.62 1820.50,215.51 C1854.50,209.10 1870.88,206.08 1875.00,205.44 C1885.93,203.75 1896.83,196.63 1899.61,189.35 C1901.12,185.39 1901.21,183.85 1900.24,178.19 C1897.39,161.56 1883.78,154.00 1856.71,154.00 C1837.52,154.00 1828.37,156.83 1818.87,165.72 C1813.46,170.77 1809.48,178.28 1807.83,186.52 L 1806.72 192.00 L 1710.73 192.00 L 1711.25 180.25 C1711.63,171.65 1712.43,166.48 1714.21,160.98 C1722.39,135.69 1744.24,116.30 1774.41,107.55 C1800.19,100.08 1826.10,96.70 1857.50,96.70 C1887.46,96.70 1908.31,98.88 1933.90,104.68 C1946.79,107.60 1954.36,110.35 1963.34,115.37 C1982.33,125.99 1995.81,147.10 1998.91,171.06 C1999.41,174.87 1999.80,141.19 1999.87,88.75 L 2000.00 0.00 L 2000.00 389.26 L 1995.75 390.04 C1988.59,391.37 1955.52,394.06 1936.00,394.90 ZM 0.00 0.00 L 446.50 -0.00 L 446.50 386.50 L 348.50 386.50 L 347.50 52.51 L 335.50 69.81 C328.90,79.33 319.94,92.15 315.59,98.31 C311.23,104.46 305.36,112.88 302.53,117.00 C299.71,121.12 293.45,130.12 288.63,137.00 C283.82,143.88 271.57,161.43 261.42,176.00 C251.27,190.57 235.73,212.85 226.89,225.50 C218.06,238.15 203.47,259.08 194.49,272.00 C185.50,284.92 177.18,296.85 176.00,298.50 C174.82,300.15 165.10,314.10 154.39,329.50 C133.68,359.29 122.23,375.72 117.74,382.09 L 114.99 386.00 L 58.99 386.00 C19.62,386.00 3.00,385.68 3.00,384.92 C3.00,383.95 11.52,371.18 25.63,351.00 C28.52,346.88 34.42,338.33 38.75,332.00 C43.08,325.67 50.85,314.42 56.01,307.00 C61.17,299.58 70.17,286.52 76.01,278.00 C87.36,261.43 88.32,260.05 117.37,218.00 C127.81,202.88 139.91,185.32 144.25,179.00 C148.59,172.68 155.91,162.10 160.50,155.50 C165.10,148.90 172.86,137.65 177.73,130.50 C185.26,119.47 195.60,104.48 218.47,71.50 C220.76,68.20 229.46,55.57 237.81,43.43 C246.15,31.29 254.67,19.65 256.74,17.57 C266.14,8.11 278.45,2.70 294.40,1.02 C298.31,0.61 233.66,0.21 150.75,0.14 L 0.00 0.00 ZM 1024.76 349.29 L 1024.50 386.50 L 962.00 386.63 C927.62,386.70 896.94,386.39 893.81,385.93 C883.92,384.47 875.76,381.99 867.00,377.80 C856.17,372.61 844.16,361.02 839.23,351.00 C838.15,348.79 837.24,347.19 836.47,345.52 C832.49,336.82 832.48,326.31 832.29,219.41 C832.27,210.54 832.26,201.00 832.24,190.75 L 831.96 49.00 L 921.97 49.00 L 922.50 105.50 L 972.26 105.76 L 1022.02 106.02 L 1021.76 142.26 L 1021.50 178.50 L 973.75 178.76 L 926.00 179.02 L 926.00 236.00 C926.00,286.89 926.00,294.95 929.85,300.19 C930.60,301.22 931.50,302.13 932.58,303.24 C934.52,305.24 938.22,307.91 940.80,309.19 C945.44,311.47 946.01,311.50 985.26,311.79 L 1025.02 312.09 ZM 1495.75 200.25 L 1495.50 385.50 L 1447.75 385.76 L 1400.00 386.02 L 1400.00 15.00 L 1496.01 15.00 ZM 605.75 202.25 L 605.50 387.50 L 558.43 387.76 C532.54,387.90 511.05,387.71 510.68,387.34 C510.30,386.97 510.00,303.49 510.00,201.83 L 510.00 17.00 L 606.01 17.00 ZM 765.01 108.00 L 764.50 387.50 L 717.43 387.76 C691.54,387.90 670.05,387.71 669.68,387.34 C669.30,386.97 669.00,323.97 669.00,247.33 L 669.00 108.00 ZM 1653.75 245.74 L 1653.50 385.50 L 1606.22 385.76 C1568.93,385.96 1558.84,385.75 1558.47,384.76 C1558.20,384.07 1558.10,321.17 1558.24,245.00 L 1558.50 106.50 L 1606.25 106.24 L 1654.01 105.98 ZM 1194.00 335.37 C1201.07,335.87 1235.67,335.03 1243.50,334.16 L 1249.50 333.50 L 1249.76 294.06 C1249.91,272.37 1249.68,254.29 1249.26,253.88 C1248.84,253.47 1243.32,254.25 1237.00,255.61 C1225.50,258.09 1217.85,259.68 1185.00,266.41 C1163.55,270.80 1159.82,272.15 1153.89,277.70 C1147.23,283.93 1144.52,290.52 1144.66,300.12 C1144.86,313.41 1151.15,323.72 1162.50,329.34 C1167.36,331.76 1181.72,334.50 1194.00,335.37 ZM 1842.00 335.01 C1851.72,335.88 1882.14,335.49 1894.25,334.35 L 1901.00 333.71 L 1901.00 293.29 C1901.00,255.26 1900.90,252.90 1899.25,253.37 C1898.29,253.65 1891.65,255.08 1884.50,256.55 C1836.00,266.49 1815.84,271.04 1812.29,272.85 C1806.59,275.76 1802.10,280.57 1799.08,286.99 C1795.38,294.89 1795.48,306.12 1799.33,314.14 C1802.32,320.36 1809.22,327.36 1814.56,329.59 C1819.79,331.78 1831.42,334.07 1842.00,335.01 ZM 1654.00 15.00 L 1654.00 82.00 L 1558.00 82.00 L 1558.00 15.00 ZM 765.03 17.00 L 764.50 83.50 L 669.00 84.02 L 669.00 17.00 Z" fill="rgb(0,130,87)"/>
<path d="M 287.15 2.09 C289.02,1.60 290.62,1.15 291.66,0.84 C294.02,0.90 294.99,0.96 294.40,1.02 C291.90,1.28 289.48,1.64 287.15,2.09 ZM 272.28 6.76 C266.38,9.46 261.23,13.05 256.74,17.57 C261.56,12.72 266.27,9.37 272.28,6.76 Z" fill="rgb(65,150,121)"/>
<path d="M 315.39 384.42 C314.85,385.84 306.95,386.00 236.37,386.00 L 157.96 386.00 L 164.87 375.75 C168.68,370.11 176.90,358.19 183.14,349.27 C198.45,327.38 209.97,310.81 219.09,297.54 C226.35,286.97 255.54,244.99 269.52,225.00 C280.57,209.21 303.55,176.00 309.14,167.75 C312.03,163.49 314.76,160.00 315.20,160.00 C316.12,160.00 316.31,382.02 315.39,384.42 Z" fill="rgb(234,29,48)"/>
<path d="M 0.00 198.00 L 0.00 0.00 L 146.67 -0.00 C227.33,-0.00 293.15,0.17 292.92,0.38 C292.69,0.59 288.79,1.70 284.26,2.83 C271.69,5.99 264.35,9.92 256.74,17.57 C254.67,19.65 246.15,31.29 237.81,43.43 C229.46,55.57 220.76,68.20 218.47,71.50 C195.60,104.48 185.26,119.47 177.73,130.50 C172.86,137.65 165.10,148.90 160.50,155.50 C155.91,162.10 148.59,172.68 144.25,179.00 C139.91,185.32 127.81,202.88 117.37,218.00 C88.32,260.05 87.36,261.43 76.01,278.00 C70.17,286.52 61.17,299.58 56.01,307.00 C50.85,314.42 43.08,325.67 38.75,332.00 C34.42,338.33 28.52,346.88 25.63,351.00 C11.52,371.18 3.00,383.95 3.00,384.92 C3.00,385.68 19.62,386.00 58.99,386.00 L 114.99 386.00 L 117.74 382.09 C122.23,375.72 133.68,359.29 154.39,329.50 C165.10,314.10 174.82,300.15 176.00,298.50 C177.18,296.85 185.50,284.92 194.49,272.00 C203.47,259.08 218.06,238.15 226.89,225.50 C235.73,212.85 251.27,190.57 261.42,176.00 C271.57,161.43 283.82,143.88 288.63,137.00 C293.45,130.12 299.71,121.12 302.53,117.00 C305.36,112.88 311.23,104.46 315.59,98.31 C319.94,92.15 328.90,79.33 335.50,69.81 L 347.50 52.51 L 348.00 219.50 L 348.50 386.50 L 397.50 386.50 L 446.50 386.50 L 446.50 193.25 L 446.50 -0.00 L 1223.25 -0.00 L 2000.00 0.00 L 1999.87 88.75 C1999.80,141.19 1999.41,174.87 1998.91,171.06 C1995.81,147.10 1982.33,125.99 1963.34,115.37 C1954.36,110.35 1946.79,107.60 1933.90,104.68 C1908.31,98.88 1887.46,96.70 1857.50,96.70 C1826.10,96.70 1800.19,100.08 1774.41,107.55 C1744.24,116.30 1722.39,135.69 1714.21,160.98 C1712.43,166.48 1711.63,171.65 1711.25,180.25 L 1710.73 192.00 L 1758.72 192.00 L 1806.72 192.00 L 1807.83 186.52 C1809.48,178.28 1813.46,170.77 1818.87,165.72 C1828.37,156.83 1837.52,154.00 1856.71,154.00 C1883.78,154.00 1897.39,161.56 1900.24,178.19 C1901.21,183.85 1901.12,185.39 1899.61,189.35 C1896.83,196.63 1885.93,203.75 1875.00,205.44 C1870.88,206.08 1854.50,209.10 1820.50,215.51 C1793.34,220.62 1775.03,224.04 1761.50,226.52 C1729.26,232.44 1708.86,248.80 1699.59,276.20 C1695.41,288.53 1694.46,311.38 1697.50,326.20 C1702.32,349.70 1714.46,367.44 1731.76,376.27 C1754.00,387.62 1778.66,393.51 1810.00,394.94 C1819.07,395.35 1700.05,395.69 1545.50,395.70 C1380.64,395.70 1272.77,395.35 1284.50,394.87 C1302.27,394.13 1345.88,390.46 1346.70,389.63 C1347.37,388.96 1347.18,171.29 1346.50,167.50 C1345.08,159.47 1342.69,152.32 1338.65,144.00 C1332.73,131.83 1321.15,120.29 1308.14,113.60 C1284.96,101.69 1230.57,94.22 1187.00,96.96 C1149.05,99.34 1117.71,106.71 1098.65,117.74 C1073.32,132.39 1059.00,156.31 1059.00,183.96 L 1059.00 192.00 L 1106.89 192.00 C1159.46,192.00 1156.00,192.42 1156.00,186.05 C1156.00,181.65 1162.55,169.67 1167.41,165.19 C1177.17,156.19 1186.58,153.63 1207.50,154.26 C1224.27,154.77 1229.92,156.08 1237.62,161.26 C1240.35,163.09 1243.76,166.64 1245.47,169.42 C1248.16,173.79 1248.50,175.22 1248.50,182.08 C1248.50,189.22 1248.26,190.10 1245.43,193.60 C1243.75,195.69 1239.70,198.85 1236.43,200.64 C1230.97,203.62 1225.10,204.89 1163.00,216.49 L 1095.50 229.10 L 1085.50 233.99 C1069.29,241.91 1059.32,251.57 1051.96,266.50 C1046.31,277.97 1044.82,284.49 1044.26,300.17 C1042.96,336.78 1056.11,364.49 1080.63,376.81 C1102.35,387.73 1127.72,393.64 1158.44,394.93 C1168.37,395.35 911.79,395.76 588.25,395.85 L 0.00 396.00 L 0.00 198.00 ZM 605.75 202.25 L 606.01 17.00 L 558.00 17.00 L 510.00 17.00 L 510.00 201.83 C510.00,303.49 510.30,386.97 510.68,387.34 C511.05,387.71 532.54,387.90 558.43,387.76 L 605.50 387.50 L 605.75 202.25 ZM 764.75 247.75 L 765.01 108.00 L 717.00 108.00 L 669.00 108.00 L 669.00 247.33 C669.00,323.97 669.30,386.97 669.68,387.34 C670.05,387.71 691.54,387.90 717.43,387.76 L 764.50 387.50 L 764.75 247.75 ZM 1024.76 349.29 L 1025.02 312.09 L 985.26 311.79 C946.01,311.50 945.44,311.47 940.80,309.19 C938.22,307.91 934.52,305.24 932.58,303.24 C925.96,296.43 926.00,296.86 926.00,234.83 L 926.00 179.02 L 973.75 178.76 L 1021.50 178.50 L 1021.76 142.26 L 1022.02 106.02 L 972.26 105.76 L 922.50 105.50 L 922.23 77.25 L 921.97 49.00 L 876.96 49.00 L 831.96 49.00 L 832.24 190.75 C832.55,348.28 832.03,336.35 839.23,351.00 C844.16,361.02 856.17,372.61 867.00,377.80 C875.76,381.99 883.92,384.47 893.81,385.93 C896.94,386.39 927.62,386.70 962.00,386.63 L 1024.50 386.50 L 1024.76 349.29 ZM 315.39 384.42 C316.31,382.02 316.12,160.00 315.20,160.00 C314.76,160.00 312.03,163.49 309.14,167.75 C303.55,176.00 280.57,209.21 269.52,225.00 C255.54,244.99 226.35,286.97 219.09,297.54 C209.97,310.81 198.45,327.38 183.14,349.27 C176.90,358.19 168.68,370.11 164.87,375.75 L 157.96 386.00 L 236.37 386.00 C306.95,386.00 314.85,385.84 315.39,384.42 ZM 1495.75 200.25 L 1496.01 15.00 L 1448.00 15.00 L 1400.00 15.00 L 1400.00 200.51 L 1400.00 386.02 L 1447.75 385.76 L 1495.50 385.50 L 1495.75 200.25 ZM 1653.75 245.74 L 1654.01 105.98 L 1606.25 106.24 L 1558.50 106.50 L 1558.24 245.00 C1558.10,321.17 1558.20,384.07 1558.47,384.76 C1558.84,385.75 1568.93,385.96 1606.22,385.76 L 1653.50 385.50 L 1653.75 245.74 ZM 764.76 50.25 L 765.03 17.00 L 717.01 17.00 L 669.00 17.00 L 669.00 50.51 L 669.00 84.02 L 716.75 83.76 L 764.50 83.50 L 764.76 50.25 ZM 1654.00 48.50 L 1654.00 15.00 L 1606.00 15.00 L 1558.00 15.00 L 1558.00 48.50 L 1558.00 82.00 L 1606.00 82.00 L 1654.00 82.00 L 1654.00 48.50 ZM 1936.00 394.90 C1955.52,394.06 1988.59,391.37 1995.75,390.04 L 2000.00 389.26 L 2000.00 392.63 L 2000.00 396.00 L 1958.75 395.85 C1921.98,395.71 1919.51,395.61 1936.00,394.90 ZM 1194.00 335.37 C1181.72,334.50 1167.36,331.76 1162.50,329.34 C1151.15,323.72 1144.86,313.41 1144.66,300.12 C1144.52,290.52 1147.23,283.93 1153.89,277.70 C1159.82,272.15 1163.55,270.80 1185.00,266.41 C1217.85,259.68 1225.50,258.09 1237.00,255.61 C1243.32,254.25 1248.84,253.47 1249.26,253.88 C1249.68,254.29 1249.91,272.37 1249.76,294.06 L 1249.50 333.50 L 1243.50 334.16 C1235.67,335.03 1201.07,335.87 1194.00,335.37 ZM 1842.00 335.01 C1831.42,334.07 1819.79,331.78 1814.56,329.59 C1809.22,327.36 1802.32,320.36 1799.33,314.14 C1795.48,306.12 1795.38,294.89 1799.08,286.99 C1802.10,280.57 1806.59,275.76 1812.29,272.85 C1815.84,271.04 1836.00,266.49 1884.50,256.55 C1891.65,255.08 1898.29,253.65 1899.25,253.37 C1900.90,252.90 1901.00,255.26 1901.00,293.29 L 1901.00 333.71 L 1894.25 334.35 C1882.14,335.49 1851.72,335.88 1842.00,335.01 Z" fill="rgb(253,254,254)"/>
</g>
</svg>