<svg xmlns="http://www.w3.org/2000/svg" width="1842" height="569" viewBox="0 0 1842 569">
<g>
<path d="M 1130.50 554.39 C1131.60,555.24 1132.05,555.94 1131.50,555.94 C1130.48,555.94 1103.75,544.56 1096.50,541.04 C1094.30,539.97 1068.65,528.90 1039.50,516.44 C842.48,432.19 754.83,394.01 731.39,382.20 C723.23,378.09 699.26,362.37 677.30,346.73 C670.81,342.11 664.93,337.99 664.22,337.59 C663.39,337.11 659.49,340.13 653.12,346.17 C633.99,364.33 617.42,373.93 582.64,386.99 C547.65,400.13 502.77,406.07 452.75,404.18 C450.14,404.08 448.00,403.65 448.00,403.21 C448.00,402.78 452.61,400.92 458.25,399.09 C472.63,394.40 490.82,386.39 503.76,379.05 C536.75,360.32 558.17,336.43 564.46,311.33 C570.39,287.71 564.75,262.79 548.21,239.50 C543.05,232.24 527.59,214.80 525.68,214.10 C524.03,213.49 510.05,203.77 495.50,193.12 C465.54,171.18 457.62,165.40 440.50,152.93 C430.60,145.72 421.38,138.98 420.00,137.95 C418.62,136.91 410.75,131.12 402.50,125.07 C394.25,119.01 376.70,106.11 363.50,96.38 C350.30,86.66 329.66,71.46 317.62,62.60 C305.59,53.75 289.62,41.93 282.12,36.34 C274.63,30.75 261.38,20.92 252.68,14.49 C243.98,8.06 237.06,2.61 237.29,2.38 C237.52,2.14 244.42,4.62 252.61,7.89 C357.43,49.72 414.19,72.55 422.00,76.00 C430.25,79.66 505.66,111.27 521.00,117.51 C543.93,126.84 606.71,153.27 617.19,158.01 C634.90,166.03 650.13,175.61 676.03,195.07 L 687.56 203.73 L 691.29 199.83 C696.98,193.90 713.36,183.64 729.24,176.06 C767.33,157.89 794.02,149.93 826.97,146.94 C840.98,145.67 866.71,146.31 868.36,147.96 C868.88,148.48 867.43,149.32 864.88,149.99 C862.47,150.61 857.57,152.22 853.98,153.56 C850.39,154.90 847.10,156.00 846.65,156.00 C844.46,156.00 824.38,168.03 816.04,174.34 C793.77,191.19 780.39,208.96 778.50,224.22 C778.21,226.58 777.44,230.07 776.80,232.00 C774.74,238.12 775.34,258.38 777.83,267.29 C781.75,281.27 789.43,294.76 800.92,307.86 C814.10,322.89 835.70,339.39 978.50,443.46 C995.00,455.48 1013.22,468.79 1019.00,473.03 C1024.78,477.26 1043.68,491.05 1061.00,503.66 C1109.59,539.04 1128.32,552.71 1130.50,554.39 ZM 1716.79 507.93 C1692.80,510.58 1677.17,506.37 1665.77,494.19 C1650.76,478.14 1658.91,456.05 1682.72,448.26 C1693.53,444.73 1711.08,444.51 1721.64,447.78 C1734.15,451.65 1741.84,460.78 1743.57,473.79 C1744.23,478.80 1744.17,479.00 1741.88,479.02 C1740.57,479.03 1726.22,479.04 1710.00,479.05 C1693.78,479.06 1679.90,479.44 1679.16,479.90 C1677.36,481.02 1679.57,485.31 1684.16,489.64 C1694.34,499.21 1711.45,500.40 1732.91,493.03 C1737.76,491.36 1742.04,490.00 1742.42,490.00 C1742.79,490.00 1742.96,492.59 1742.80,495.75 L 1742.50 501.50 L 1734.50 504.18 C1730.10,505.65 1722.13,507.33 1716.79,507.93 ZM 1171.18 505.94 C1164.37,508.23 1152.18,509.25 1146.34,508.02 C1136.46,505.92 1130.00,500.43 1130.00,494.12 C1130.01,484.78 1138.41,479.69 1162.29,474.57 C1172.15,472.45 1177.74,470.78 1178.38,469.76 C1179.05,468.70 1178.99,466.90 1178.20,464.26 C1176.76,459.47 1174.06,458.04 1165.04,457.33 C1155.79,456.60 1146.62,458.36 1138.71,462.40 L 1131.91 465.86 L 1132.21 459.21 C1132.50,452.63 1132.54,452.53 1136.37,450.39 C1142.26,447.09 1151.30,445.52 1164.00,445.57 C1180.45,445.64 1189.88,448.87 1195.41,456.32 C1197.34,458.92 1197.53,460.70 1197.83,479.13 C1198.10,495.77 1198.40,499.22 1199.65,499.70 C1200.95,500.19 1205.32,499.17 1209.82,497.33 C1210.79,496.93 1211.06,497.67 1210.82,500.13 C1210.55,502.92 1209.76,503.89 1206.00,505.96 C1202.25,508.04 1200.14,508.46 1193.34,508.48 C1186.42,508.50 1184.71,508.16 1182.13,506.25 C1178.43,503.52 1178.36,503.52 1171.18,505.94 ZM 1556.42 507.39 C1554.64,508.08 1543.45,508.01 1540.74,507.31 C1539.09,506.88 1538.99,504.79 1539.24,476.67 L 1539.50 446.50 L 1557.50 446.50 L 1557.81 450.31 C1557.99,452.41 1558.44,453.98 1558.81,453.81 C1559.19,453.63 1561.92,452.22 1564.87,450.66 C1580.97,442.20 1603.15,443.93 1612.81,454.40 C1618.36,460.43 1619.20,465.17 1618.81,488.50 L 1618.50 507.50 L 1612.50 507.81 C1609.20,507.98 1605.07,507.85 1603.32,507.53 L 1600.14 506.94 L 1599.82 485.72 C1599.52,465.62 1599.38,464.33 1597.26,461.36 C1591.19,452.86 1572.67,452.91 1561.44,461.48 L 1558.00 464.10 L 1558.00 485.44 C1558.00,503.98 1557.79,506.87 1556.42,507.39 ZM 1842.00 487.27 L 1842.00 494.99 L 1838.49 498.88 C1836.56,501.01 1832.82,503.69 1830.17,504.83 C1818.31,509.93 1800.79,509.96 1781.75,504.92 L 1778.00 503.92 L 1778.00 496.85 C1778.00,490.49 1778.17,489.86 1779.75,490.57 C1780.71,491.00 1785.32,492.68 1790.00,494.30 C1801.20,498.19 1814.25,498.69 1818.67,495.40 C1822.49,492.57 1822.77,489.73 1819.45,487.56 C1817.99,486.60 1812.09,484.05 1806.33,481.89 C1800.57,479.73 1793.26,476.65 1790.09,475.05 C1773.15,466.49 1773.92,453.02 1791.67,447.30 C1798.82,444.99 1819.31,445.08 1829.25,447.45 C1833.51,448.47 1837.07,449.57 1837.15,449.90 C1837.52,451.33 1837.73,460.56 1837.41,461.11 C1837.22,461.44 1833.33,460.63 1828.78,459.31 C1812.69,454.64 1798.00,455.41 1798.00,460.93 C1798.00,463.22 1802.83,465.93 1819.50,473.00 C1831.77,478.19 1837.40,481.42 1840.00,484.73 L 1842.00 487.27 ZM 1427.75 507.37 C1424.49,508.24 1415.86,508.02 1413.32,506.99 L 1411.14 506.12 L 1411.04 460.56 L 1410.94 415.00 L 1430.00 415.00 L 1430.00 506.77 ZM 1330.00 489.00 L 1329.50 507.50 L 1322.50 507.63 C1318.65,507.71 1314.48,507.56 1313.24,507.31 L 1310.97 506.86 L 1311.24 476.68 L 1311.50 446.50 L 1320.70 446.21 L 1329.91 445.93 L 1330.20 452.48 L 1330.50 459.04 L 1335.48 454.92 C1344.28,447.64 1349.36,445.59 1358.54,445.60 C1365.47,445.61 1367.52,446.05 1373.38,448.80 L 1380.17 451.98 L 1370.89 462.84 L 1365.20 460.18 C1356.91,456.32 1347.50,456.41 1340.22,460.43 C1331.29,465.37 1330.59,467.33 1330.00,489.00 ZM 1492.75 507.37 C1489.48,508.25 1478.71,508.11 1477.23,507.17 C1476.25,506.54 1476.03,499.73 1476.23,476.53 L 1476.50 446.69 L 1485.75 446.37 L 1495.00 446.05 L 1495.00 506.77 ZM 1262.42 507.39 C1260.64,508.08 1249.45,508.01 1246.74,507.31 C1245.09,506.88 1244.99,504.79 1245.24,476.67 L 1245.50 446.50 L 1254.75 446.21 L 1264.00 445.92 L 1264.00 476.36 C1264.00,503.18 1263.81,506.86 1262.42,507.39 ZM 1679.00 469.67 C1679.00,470.80 1683.02,470.99 1701.75,470.77 L 1724.50 470.50 L 1724.23 468.00 C1723.84,464.35 1720.91,460.77 1716.44,458.50 C1713.33,456.93 1710.51,456.51 1703.00,456.50 C1694.86,456.50 1692.78,456.86 1688.50,459.00 C1683.73,461.39 1679.00,466.69 1679.00,469.67 ZM 1154.90 498.73 C1158.82,500.59 1169.70,499.71 1174.75,497.13 L 1179.00 494.96 L 1179.00 476.96 L 1176.25 477.56 C1170.48,478.81 1159.37,482.27 1156.50,483.72 C1147.03,488.50 1146.36,494.70 1154.90,498.73 ZM 1262.66 433.07 C1257.49,436.22 1250.82,435.40 1246.25,431.06 C1243.85,428.78 1243.65,428.09 1244.62,425.54 C1246.83,419.80 1262.99,419.38 1265.99,424.99 C1267.56,427.91 1266.36,430.81 1262.66,433.07 ZM 1490.40 434.04 C1480.91,437.65 1470.45,428.73 1477.58,423.12 C1483.03,418.83 1497.00,421.61 1497.00,426.99 C1497.00,429.39 1493.89,432.71 1490.40,434.04 Z" fill="rgb(38,41,46)"/>
<path d="M 1149.00 392.96 C1123.57,394.75 1100.88,393.42 1063.00,387.94 C1031.91,383.45 1009.93,378.34 983.00,369.34 C931.28,352.06 899.56,325.39 892.40,293.18 C890.08,282.75 890.88,262.28 894.00,252.50 C901.76,228.14 917.41,209.83 943.70,194.36 C987.34,168.68 1060.23,155.17 1139.52,158.08 C1174.51,159.36 1205.49,163.53 1236.00,171.05 C1300.06,186.86 1337.71,214.27 1348.19,252.75 C1350.99,263.03 1351.23,284.30 1348.64,294.00 C1343.98,311.50 1335.84,325.24 1322.96,337.35 C1290.23,368.14 1230.48,387.24 1149.00,392.96 ZM 0.00 0.00 L 0.09 162.75 C0.16,294.95 0.41,324.66 1.43,321.00 C3.52,313.49 6.49,308.79 13.15,302.45 C27.37,288.90 47.78,280.33 90.50,269.97 C121.21,262.53 151.80,257.03 196.00,250.99 C234.32,245.75 242.55,243.72 245.47,238.78 C248.63,233.43 244.42,222.28 237.66,218.10 C232.45,214.88 221.57,211.08 211.07,208.82 C197.26,205.84 164.95,205.17 143.96,207.42 C112.17,210.83 75.06,220.44 35.00,235.63 C28.67,238.03 23.16,240.00 22.75,240.00 C22.34,240.00 22.00,227.46 22.00,212.14 L 22.00 184.28 L 41.75 178.69 C78.59,168.26 85.08,167.03 142.50,159.54 C206.50,151.19 271.68,154.82 323.80,169.64 C345.94,175.93 358.17,182.09 368.09,191.95 C380.41,204.19 381.17,209.40 380.85,279.00 C380.61,331.42 380.78,333.41 385.83,338.82 C392.59,346.05 405.39,345.11 438.36,334.96 C445.44,332.78 451.63,331.00 452.11,331.00 C453.35,331.00 453.26,370.72 452.02,371.49 C448.04,373.95 409.21,383.33 386.00,387.43 C365.33,391.09 338.38,394.00 325.12,394.00 C297.28,394.00 272.44,386.07 258.25,372.67 L 252.99 367.70 L 243.25 372.29 C217.96,384.18 180.05,390.71 125.50,392.57 C95.61,393.59 72.91,391.16 53.00,384.79 C24.75,375.77 6.06,359.74 1.39,340.54 C0.41,336.47 0.15,357.92 0.09,452.25 L 0.00 569.00 ZM 1547.00 244.11 L 1547.00 388.00 L 1479.67 388.00 C1442.63,388.00 1412.04,387.71 1411.68,387.35 C1411.33,386.99 1411.02,335.92 1411.01,273.85 L 1410.98 161.00 L 1547.00 161.00 L 1547.00 176.44 C1547.00,184.93 1547.35,192.10 1547.79,192.37 C1548.22,192.64 1561.83,186.80 1578.04,179.39 C1594.24,171.99 1610.25,165.08 1613.61,164.04 C1635.91,157.14 1690.12,156.95 1741.00,163.60 C1786.91,169.60 1816.76,186.92 1830.40,215.50 C1831.62,218.04 1832.61,220.06 1833.42,222.14 C1837.00,231.39 1837.00,242.02 1837.00,306.36 L 1837.00 311.82 L 1837.00 388.01 L 1769.25 387.76 C1709.63,387.53 1701.54,387.32 1701.84,386.00 C1702.03,385.17 1702.43,355.70 1702.74,320.50 C1703.35,250.03 1702.90,240.99 1698.32,230.77 C1693.12,219.18 1679.93,210.42 1662.14,206.72 C1654.71,205.17 1621.27,205.28 1613.50,206.87 C1591.62,211.36 1569.06,223.19 1552.59,238.81 ZM 1115.50 348.97 C1121.00,349.37 1125.79,349.77 1126.14,349.85 C1126.50,349.93 1131.45,349.53 1137.14,348.96 C1174.52,345.21 1198.41,328.79 1207.67,300.50 C1211.21,289.68 1212.17,265.45 1209.53,253.33 C1205.27,233.71 1192.90,217.48 1176.00,209.32 C1161.66,202.41 1151.06,200.17 1129.63,199.54 C1103.31,198.76 1085.79,201.81 1069.37,210.03 C1046.83,221.30 1035.08,238.08 1031.08,264.69 C1023.77,313.29 1055.06,344.52 1115.50,348.97 ZM 1127.00 565.57 C1127.00,566.51 1124.29,565.86 1120.00,563.90 C1117.53,562.77 1071.40,542.96 1017.50,519.87 C963.60,496.79 911.85,474.58 902.50,470.54 C778.51,416.86 730.37,395.42 721.00,389.71 C714.15,385.54 691.16,370.02 672.29,356.83 C666.12,352.52 660.73,349.00 660.31,349.00 C659.89,349.00 656.16,352.34 652.02,356.42 C640.18,368.11 627.09,377.32 611.50,384.95 C566.47,406.99 524.67,416.36 472.00,416.25 C459.62,416.22 448.39,415.77 447.04,415.25 C444.85,414.41 445.61,413.96 454.04,411.10 C459.24,409.34 464.85,407.29 466.50,406.53 L 469.50 405.16 L 465.50 405.07 C461.80,404.99 457.23,404.63 453.69,404.21 C503.33,406.00 547.87,400.05 582.64,386.99 C617.42,373.93 633.99,364.33 653.12,346.17 C659.49,340.13 663.39,337.11 664.22,337.59 C664.93,337.99 670.81,342.11 677.30,346.73 C699.26,362.37 723.23,378.09 731.39,382.20 C754.83,394.01 842.48,432.19 1039.50,516.44 C1066.38,527.93 1090.28,538.24 1095.57,540.61 C1092.38,539.48 1091.32,539.90 1094.00,542.00 C1095.38,543.08 1096.85,543.97 1097.27,543.98 C1098.18,544.00 1127.00,564.93 1127.00,565.57 ZM 172.16 354.99 C190.34,357.54 223.96,351.66 246.50,342.00 L 251.00 340.07 L 251.00 289.00 L 248.49 289.00 C240.40,289.00 202.80,296.29 186.50,301.02 C173.30,304.85 159.68,309.61 154.83,312.09 C146.04,316.57 139.00,325.46 139.00,332.06 C139.00,342.61 153.02,352.31 172.16,354.99 ZM 562.75 317.10 C565.07,306.63 563.89,290.90 559.48,277.95 C552.95,258.75 534.65,233.99 518.43,222.41 C514.97,219.95 512.00,217.54 511.82,217.07 C511.23,215.50 501.33,208.20 496.39,205.70 C492.01,203.47 473.84,190.70 448.50,172.03 C438.40,164.59 373.99,117.52 362.16,108.94 C351.03,100.87 276.42,46.11 263.50,36.53 C257.45,32.05 248.32,25.30 243.22,21.55 C238.12,17.80 234.12,14.55 234.34,14.33 C234.56,14.11 241.82,16.67 250.48,20.02 C259.14,23.37 266.44,25.89 266.71,25.62 C266.90,25.43 263.74,22.81 258.98,19.15 C266.94,25.05 276.28,31.98 282.12,36.34 C289.62,41.93 305.59,53.75 317.62,62.60 C329.66,71.46 350.30,86.66 363.50,96.38 C376.70,106.11 394.25,119.01 402.50,125.07 C410.75,131.12 418.62,136.91 420.00,137.95 C421.38,138.98 430.60,145.72 440.50,152.93 C457.62,165.40 465.54,171.18 495.50,193.12 C510.05,203.77 524.03,213.49 525.68,214.10 C527.59,214.80 543.05,232.24 548.21,239.50 C564.75,262.79 570.39,287.71 564.46,311.33 C563.98,313.26 563.41,315.19 562.75,317.10 ZM 775.67 250.26 C775.35,242.72 775.69,235.30 776.80,232.00 C777.44,230.07 778.21,226.58 778.50,224.22 C780.39,208.96 793.77,191.19 816.04,174.34 C824.38,168.03 844.46,156.00 846.65,156.00 C847.10,156.00 850.39,154.90 853.98,153.56 C854.45,153.38 854.95,153.20 855.46,153.02 C850.85,154.73 847.00,156.50 847.00,157.09 C847.00,157.59 849.36,158.04 852.25,158.09 C859.40,158.21 867.84,159.52 866.00,160.23 C865.17,160.55 860.48,162.02 855.57,163.49 C835.96,169.39 813.47,183.57 797.45,200.15 C779.82,218.40 775.61,227.54 775.64,247.50 C775.64,248.44 775.65,249.36 775.67,250.26 ZM 499.63 381.32 C520.39,369.94 537.55,356.17 549.31,341.36 C538.63,355.18 523.21,368.01 503.76,379.05 C502.43,379.80 501.06,380.56 499.63,381.32 ZM 851.70 350.29 C877.07,369.32 917.04,398.67 978.50,443.46 C916.41,398.21 877.23,369.51 851.70,350.29 ZM 1119.20 546.08 C1108.69,538.39 1090.26,524.96 1061.00,503.66 C1043.68,491.05 1024.78,477.26 1019.00,473.03 C1024.78,477.26 1043.68,491.05 1061.00,503.66 C1078.32,516.27 1101.38,533.06 1112.24,540.97 C1114.70,542.76 1117.04,544.48 1119.20,546.08 ZM 811.63 318.54 C806.94,314.35 803.74,311.07 800.92,307.86 C800.74,307.66 800.57,307.46 800.39,307.26 C803.68,310.95 807.39,314.66 811.63,318.54 ZM 787.50 289.56 C784.94,285.25 782.77,280.90 780.98,276.49 C781.89,278.66 782.93,280.91 784.12,283.29 C785.20,285.45 786.32,287.53 787.50,289.56 ZM 448.03 403.14 C448.01,403.11 448.00,403.09 448.00,403.07 C448.00,402.71 452.61,400.92 458.25,399.09 C452.90,400.83 448.47,402.59 448.03,403.14 ZM 237.31 2.37 C237.31,2.36 237.31,2.36 237.31,2.35 C237.53,2.13 244.42,4.62 252.61,7.89 C244.55,4.68 237.75,2.22 237.31,2.37 ZM 1107.60 546.05 C1110.73,547.41 1114.10,548.86 1117.29,550.22 C1114.04,548.85 1110.65,547.39 1107.60,546.05 Z" fill="rgb(150,143,95)"/>
<path d="M 456.05 177.58 C477.41,193.21 492.45,203.70 496.39,205.70 C501.33,208.20 511.23,215.50 511.82,217.07 C511.97,217.46 514.04,219.18 516.72,221.17 C516.44,220.99 516.20,220.86 516.00,220.76 C514.08,219.85 507.44,215.38 501.26,210.81 C495.07,206.24 482.70,197.13 473.76,190.58 C468.08,186.41 461.42,181.52 456.05,177.58 ZM 1107.60 546.05 C1107.61,546.05 1107.62,546.05 1107.62,546.06 C1110.67,547.40 1114.05,548.85 1117.28,550.22 L 1117.29 550.22 C1118.32,550.66 1119.34,551.08 1120.32,551.50 C1118.60,550.79 1116.76,550.02 1114.85,549.21 C1097.10,541.69 1095.00,540.87 1095.00,541.44 C1095.00,541.65 1102.20,547.06 1111.00,553.47 C1111.32,553.70 1111.64,553.94 1111.96,554.17 C1104.81,548.99 1097.72,543.99 1097.27,543.98 C1096.85,543.97 1095.38,543.08 1094.00,542.00 C1091.32,539.90 1092.38,539.48 1095.57,540.61 C1096.02,540.81 1096.33,540.96 1096.50,541.04 C1098.76,542.14 1102.92,544.00 1107.60,546.05 ZM 518.97 222.80 C526.80,228.51 535.07,237.23 542.25,246.86 C538.24,241.68 533.69,236.55 528.58,231.46 C525.23,228.12 521.59,224.86 518.97,222.80 ZM 0.81 342.55 C0.49,350.49 0.23,380.70 0.12,421.74 C0.20,371.55 0.38,349.40 0.81,342.55 ZM 64.30 276.94 C78.57,272.60 95.55,268.42 115.07,264.44 C106.72,266.18 98.61,268.01 90.50,269.97 C80.65,272.36 71.98,274.66 64.30,276.94 ZM 10.78 358.80 C7.40,354.87 4.87,350.90 3.54,347.19 C2.62,344.63 1.49,341.65 1.01,340.53 C1.12,339.90 1.25,339.95 1.39,340.54 C2.97,347.04 6.16,353.18 10.78,358.80 ZM 17.03 299.00 C19.79,296.63 22.70,294.46 25.56,292.74 C28.23,291.13 31.24,289.54 34.60,287.95 C27.63,291.34 21.95,294.95 17.03,299.00 ZM 2.01 319.05 C2.15,317.22 3.29,314.76 5.13,312.02 C3.84,314.18 2.85,316.45 2.01,319.05 ZM 562.75 317.10 C562.71,317.21 562.67,317.31 562.63,317.42 C563.26,314.81 563.57,312.06 563.76,308.68 C563.88,306.53 563.91,304.39 563.86,302.25 C564.06,307.71 563.69,312.84 562.75,317.10 ZM 68.55 388.84 C59.77,387.07 51.72,384.68 44.28,381.67 C47.08,382.79 49.98,383.83 53.00,384.79 C57.98,386.39 63.14,387.73 68.55,388.84 ZM 561.02 283.06 C560.19,280.01 559.18,276.97 557.98,273.94 C558.54,275.30 559.04,276.64 559.48,277.95 C560.05,279.62 560.56,281.33 561.02,283.06 ZM 555.41 332.52 C553.59,335.51 551.56,338.45 549.31,341.36 L 549.31 341.36 L 549.18 341.52 C550.62,339.67 551.96,337.81 553.19,335.94 C553.99,334.73 554.73,333.59 555.41,332.52 ZM 499.63 381.32 C499.36,381.46 499.08,381.61 498.80,381.76 C501.10,380.52 503.35,379.25 505.55,377.95 C503.61,379.09 501.64,380.22 499.63,381.32 ZM 403.70 139.25 C385.46,125.92 367.56,112.86 362.16,108.94 C367.83,113.06 385.62,126.04 403.70,139.25 ZM 1.26 321.29 C1.30,321.24 1.34,321.20 1.38,321.15 C1.34,321.26 1.30,321.30 1.26,321.29 ZM 1127.00 565.56 L 1127.00 565.57 C1127.00,565.55 1126.98,565.52 1126.95,565.48 C1126.98,565.52 1127.00,565.55 1127.00,565.56 Z" fill="rgb(188,187,175)"/>
<path d="M 0.07 453.75 C0.11,388.33 0.51,339.36 1.00,340.50 C1.47,341.60 2.62,344.61 3.54,347.19 C7.22,357.44 19.98,369.71 34.96,377.40 C57.72,389.09 86.44,393.90 125.50,392.57 C180.05,390.71 217.96,384.18 243.25,372.29 L 252.99 367.70 L 258.25 372.67 C272.44,386.07 297.28,394.00 325.12,394.00 C338.38,394.00 365.33,391.09 386.00,387.43 C409.21,383.33 448.04,373.95 452.02,371.49 C453.26,370.72 453.35,331.00 452.11,331.00 C451.63,331.00 445.44,332.78 438.36,334.96 C405.39,345.11 392.59,346.05 385.83,338.82 C380.78,333.41 380.61,331.42 380.85,279.00 C381.17,209.40 380.41,204.19 368.09,191.95 C358.17,182.09 345.94,175.93 323.80,169.64 C271.68,154.82 206.50,151.19 142.50,159.54 C85.08,167.03 78.59,168.26 41.75,178.69 L 22.00 184.28 L 22.00 212.14 C22.00,227.46 22.34,240.00 22.75,240.00 C23.16,240.00 28.67,238.03 35.00,235.63 C75.06,220.44 112.17,210.83 143.96,207.42 C164.95,205.17 197.26,205.84 211.07,208.82 C221.57,211.08 232.45,214.88 237.66,218.10 C244.42,222.28 248.63,233.43 245.47,238.78 C242.55,243.72 234.32,245.75 196.00,250.99 C110.37,262.69 51.48,277.11 25.56,292.74 C14.22,299.58 2.00,313.41 2.00,319.41 C2.00,320.22 1.55,321.16 1.00,321.50 C0.33,321.91 0.00,268.18 0.00,161.06 L 0.00 0.00 L 921.00 0.00 L 1842.00 0.00 L 1842.00 243.63 L 1842.00 487.27 L 1840.00 484.73 C1837.40,481.42 1831.77,478.19 1819.50,473.00 C1802.83,465.93 1798.00,463.22 1798.00,460.93 C1798.00,455.41 1812.69,454.64 1828.78,459.31 C1833.33,460.63 1837.22,461.44 1837.41,461.11 C1837.73,460.56 1837.52,451.33 1837.15,449.90 C1837.07,449.57 1833.51,448.47 1829.25,447.45 C1819.31,445.08 1798.82,444.99 1791.67,447.30 C1773.92,453.02 1773.15,466.49 1790.09,475.05 C1793.26,476.65 1800.57,479.73 1806.33,481.89 C1812.09,484.05 1817.99,486.60 1819.45,487.56 C1822.77,489.73 1822.49,492.57 1818.67,495.40 C1814.25,498.69 1801.20,498.19 1790.00,494.30 C1785.32,492.68 1780.71,491.00 1779.75,490.57 C1778.17,489.86 1778.00,490.49 1778.00,496.85 L 1778.00 503.92 L 1781.75 504.92 C1800.79,509.96 1818.31,509.93 1830.17,504.83 C1832.82,503.69 1836.56,501.01 1838.49,498.88 L 1842.00 494.99 L 1842.00 532.00 L 1842.00 569.00 L 921.00 569.00 L 0.00 569.00 L 0.07 453.75 ZM 1127.00 565.56 C1127.00,565.31 1119.80,559.87 1111.00,553.47 C1102.20,547.06 1095.00,541.65 1095.00,541.44 C1095.00,540.87 1097.10,541.69 1114.85,549.21 C1123.84,553.02 1131.37,555.96 1131.59,555.74 C1131.81,555.52 1123.10,548.88 1112.24,540.97 C1101.38,533.06 1078.32,516.27 1061.00,503.66 C1043.68,491.05 1024.78,477.26 1019.00,473.03 C1013.22,468.79 995.00,455.48 978.50,443.46 C872.13,365.93 830.13,334.68 816.76,323.11 C800.61,309.13 791.46,297.96 784.12,283.29 C777.75,270.55 775.66,261.70 775.64,247.50 C775.61,227.54 779.82,218.40 797.45,200.15 C813.47,183.57 835.96,169.39 855.57,163.49 C860.48,162.02 865.17,160.55 866.00,160.23 C867.84,159.52 859.40,158.21 852.25,158.09 C849.36,158.04 847.00,157.59 847.00,157.09 C847.00,156.10 857.77,151.82 864.88,149.99 C867.43,149.32 868.88,148.48 868.36,147.96 C866.71,146.31 840.98,145.67 826.97,146.94 C794.02,149.93 767.33,157.89 729.24,176.06 C713.36,183.64 696.98,193.90 691.29,199.83 L 687.56 203.73 L 676.03 195.07 C650.13,175.61 634.90,166.03 617.19,158.01 C606.71,153.27 543.93,126.84 521.00,117.51 C505.66,111.27 430.25,79.66 422.00,76.00 C414.19,72.55 357.43,49.72 252.61,7.89 C244.42,4.62 237.53,2.13 237.31,2.35 C237.09,2.58 243.73,7.79 252.06,13.94 C260.39,20.10 266.98,25.35 266.71,25.62 C266.44,25.89 259.14,23.37 250.48,20.02 C241.82,16.67 234.56,14.11 234.34,14.33 C234.12,14.55 238.12,17.80 243.22,21.55 C248.32,25.30 257.45,32.05 263.50,36.53 C276.42,46.11 351.03,100.87 362.16,108.94 C373.32,117.04 437.96,164.27 448.50,172.03 C453.45,175.67 464.82,184.02 473.76,190.58 C482.70,197.13 495.07,206.24 501.26,210.81 C507.44,215.38 514.08,219.85 516.00,220.76 C517.92,221.67 523.59,226.48 528.58,231.46 C553.46,256.24 565.24,282.10 563.76,308.68 C563.19,318.96 561.48,323.39 553.19,335.94 C536.39,361.40 500.35,385.37 458.25,399.09 C452.61,400.92 448.00,402.71 448.00,403.07 C448.00,403.73 458.37,404.92 465.50,405.07 L 469.50 405.16 L 466.50 406.53 C464.85,407.29 459.24,409.34 454.04,411.10 C445.61,413.96 444.85,414.41 447.04,415.25 C448.39,415.77 459.62,416.22 472.00,416.25 C524.67,416.36 566.47,406.99 611.50,384.95 C627.09,377.32 640.18,368.11 652.02,356.42 C656.16,352.34 659.89,349.00 660.31,349.00 C660.73,349.00 666.12,352.52 672.29,356.83 C691.16,370.02 714.15,385.54 721.00,389.71 C730.37,395.42 778.51,416.86 902.50,470.54 C911.85,474.58 963.60,496.79 1017.50,519.87 C1071.40,542.96 1117.53,562.77 1120.00,563.90 C1124.31,565.87 1127.00,566.51 1127.00,565.56 ZM 1171.18 505.94 C1178.36,503.52 1178.43,503.52 1182.13,506.25 C1184.71,508.16 1186.42,508.50 1193.34,508.48 C1200.14,508.46 1202.25,508.04 1206.00,505.96 C1209.76,503.89 1210.55,502.92 1210.82,500.13 C1211.06,497.67 1210.79,496.93 1209.82,497.33 C1205.32,499.17 1200.95,500.19 1199.65,499.70 C1198.40,499.22 1198.10,495.77 1197.83,479.13 C1197.53,460.70 1197.34,458.92 1195.41,456.32 C1189.88,448.87 1180.45,445.64 1164.00,445.57 C1151.30,445.52 1142.26,447.09 1136.37,450.39 C1132.54,452.53 1132.50,452.63 1132.21,459.21 L 1131.91 465.86 L 1138.71 462.40 C1146.62,458.36 1155.79,456.60 1165.04,457.33 C1174.06,458.04 1176.76,459.47 1178.20,464.26 C1178.99,466.90 1179.05,468.70 1178.38,469.76 C1177.74,470.78 1172.15,472.45 1162.29,474.57 C1138.41,479.69 1130.01,484.78 1130.00,494.12 C1130.00,500.43 1136.46,505.92 1146.34,508.02 C1152.18,509.25 1164.37,508.23 1171.18,505.94 ZM 1716.79 507.93 C1722.13,507.33 1730.10,505.65 1734.50,504.18 L 1742.50 501.50 L 1742.80 495.75 C1742.96,492.59 1742.79,490.00 1742.42,490.00 C1742.04,490.00 1737.76,491.36 1732.91,493.03 C1711.45,500.40 1694.34,499.21 1684.16,489.64 C1679.57,485.31 1677.36,481.02 1679.16,479.90 C1679.90,479.44 1693.78,479.06 1710.00,479.05 C1726.22,479.04 1740.57,479.03 1741.88,479.02 C1744.17,479.00 1744.23,478.80 1743.57,473.79 C1741.84,460.78 1734.15,451.65 1721.64,447.78 C1711.08,444.51 1693.53,444.73 1682.72,448.26 C1658.91,456.05 1650.76,478.14 1665.77,494.19 C1677.17,506.37 1692.80,510.58 1716.79,507.93 ZM 1262.42 507.39 C1263.81,506.86 1264.00,503.18 1264.00,476.36 L 1264.00 445.92 L 1254.75 446.21 L 1245.50 446.50 L 1245.24 476.67 C1244.99,504.79 1245.09,506.88 1246.74,507.31 C1249.45,508.01 1260.64,508.08 1262.42,507.39 ZM 1330.00 489.00 C1330.59,467.33 1331.29,465.37 1340.22,460.43 C1347.50,456.41 1356.91,456.32 1365.20,460.18 L 1370.89 462.84 L 1375.53 457.41 L 1380.17 451.98 L 1373.38 448.80 C1367.52,446.05 1365.47,445.61 1358.54,445.60 C1349.36,445.59 1344.28,447.64 1335.48,454.92 L 1330.50 459.04 L 1330.20 452.48 L 1329.91 445.93 L 1320.70 446.21 L 1311.50 446.50 L 1311.24 476.68 L 1310.97 506.86 L 1313.24 507.31 C1314.48,507.56 1318.65,507.71 1322.50,507.63 L 1329.50 507.50 L 1330.00 489.00 ZM 1427.75 507.37 L 1430.00 506.77 L 1430.00 460.88 L 1430.00 415.00 L 1420.47 415.00 L 1410.94 415.00 L 1411.04 460.56 L 1411.14 506.12 L 1413.32 506.99 C1415.86,508.02 1424.49,508.24 1427.75,507.37 ZM 1492.75 507.37 L 1495.00 506.77 L 1495.00 476.41 L 1495.00 446.05 L 1485.75 446.37 L 1476.50 446.69 L 1476.23 476.53 C1476.03,499.73 1476.25,506.54 1477.23,507.17 C1478.71,508.11 1489.48,508.25 1492.75,507.37 ZM 1556.42 507.39 C1557.79,506.87 1558.00,503.98 1558.00,485.44 L 1558.00 464.10 L 1561.44 461.48 C1572.67,452.91 1591.19,452.86 1597.26,461.36 C1599.38,464.33 1599.52,465.62 1599.82,485.72 L 1600.14 506.94 L 1603.32 507.53 C1605.07,507.85 1609.20,507.98 1612.50,507.81 L 1618.50 507.50 L 1618.81 488.50 C1619.20,465.17 1618.36,460.43 1612.81,454.40 C1603.15,443.93 1580.97,442.20 1564.87,450.66 C1561.92,452.22 1559.19,453.63 1558.81,453.81 C1558.44,453.98 1557.99,452.41 1557.81,450.31 L 1557.50 446.50 L 1548.50 446.50 L 1539.50 446.50 L 1539.24 476.67 C1538.99,504.79 1539.09,506.88 1540.74,507.31 C1543.45,508.01 1554.64,508.08 1556.42,507.39 ZM 1262.66 433.07 C1266.36,430.81 1267.56,427.91 1265.99,424.99 C1262.99,419.38 1246.83,419.80 1244.62,425.54 C1243.65,428.09 1243.85,428.78 1246.25,431.06 C1250.82,435.40 1257.49,436.22 1262.66,433.07 ZM 1490.40 434.04 C1493.89,432.71 1497.00,429.39 1497.00,426.99 C1497.00,421.61 1483.03,418.83 1477.58,423.12 C1470.45,428.73 1480.91,437.65 1490.40,434.04 ZM 1149.00 392.96 C1230.48,387.24 1290.23,368.14 1322.96,337.35 C1335.84,325.24 1343.98,311.50 1348.64,294.00 C1351.23,284.30 1350.99,263.03 1348.19,252.75 C1337.71,214.27 1300.06,186.86 1236.00,171.05 C1205.49,163.53 1174.51,159.36 1139.52,158.08 C1060.23,155.17 987.34,168.68 943.70,194.36 C917.41,209.83 901.76,228.14 894.00,252.50 C890.88,262.28 890.08,282.75 892.40,293.18 C899.56,325.39 931.28,352.06 983.00,369.34 C1009.93,378.34 1031.91,383.45 1063.00,387.94 C1100.88,393.42 1123.57,394.75 1149.00,392.96 ZM 1547.00 316.06 L 1547.00 244.11 L 1552.59 238.81 C1569.06,223.19 1591.62,211.36 1613.50,206.87 C1621.27,205.28 1654.71,205.17 1662.14,206.72 C1679.93,210.42 1693.12,219.18 1698.32,230.77 C1702.90,240.99 1703.35,250.03 1702.74,320.50 C1702.43,355.70 1702.03,385.17 1701.84,386.00 C1701.54,387.32 1709.63,387.53 1769.25,387.76 L 1837.00 388.01 L 1837.00 311.82 C1837.00,227.41 1837.15,229.63 1830.40,215.50 C1816.76,186.92 1786.91,169.60 1741.00,163.60 C1690.12,156.95 1635.91,157.14 1613.61,164.04 C1610.25,165.08 1594.24,171.99 1578.04,179.39 C1561.83,186.80 1548.22,192.64 1547.79,192.37 C1547.35,192.10 1547.00,184.93 1547.00,176.44 L 1547.00 161.00 L 1478.99 161.00 L 1410.98 161.00 L 1411.01 273.85 C1411.02,335.92 1411.33,386.99 1411.68,387.35 C1412.04,387.71 1442.63,388.00 1479.67,388.00 L 1547.00 388.00 L 1547.00 316.06 ZM 172.16 354.99 C153.02,352.31 139.00,342.61 139.00,332.06 C139.00,325.46 146.04,316.57 154.83,312.09 C159.68,309.61 173.30,304.85 186.50,301.02 C202.80,296.29 240.40,289.00 248.49,289.00 L 251.00 289.00 L 251.00 314.54 L 251.00 340.07 L 246.50 342.00 C223.96,351.66 190.34,357.54 172.16,354.99 ZM 1154.90 498.73 C1146.36,494.70 1147.03,488.50 1156.50,483.72 C1159.37,482.27 1170.48,478.81 1176.25,477.56 L 1179.00 476.96 L 1179.00 485.96 L 1179.00 494.96 L 1174.75 497.13 C1169.70,499.71 1158.82,500.59 1154.90,498.73 ZM 1679.00 469.67 C1679.00,466.69 1683.73,461.39 1688.50,459.00 C1692.78,456.86 1694.86,456.50 1703.00,456.50 C1710.51,456.51 1713.33,456.93 1716.44,458.50 C1720.91,460.77 1723.84,464.35 1724.23,468.00 L 1724.50 470.50 L 1701.75 470.77 C1683.02,470.99 1679.00,470.80 1679.00,469.67 ZM 1115.50 348.97 C1055.06,344.52 1023.77,313.29 1031.08,264.69 C1035.08,238.08 1046.83,221.30 1069.37,210.03 C1085.79,201.81 1103.31,198.76 1129.63,199.54 C1151.06,200.17 1161.66,202.41 1176.00,209.32 C1192.90,217.48 1205.27,233.71 1209.53,253.33 C1212.17,265.45 1211.21,289.68 1207.67,300.50 C1198.41,328.79 1174.52,345.21 1137.14,348.96 C1131.45,349.53 1126.50,349.93 1126.14,349.85 C1125.79,349.77 1121.00,349.37 1115.50,348.97 Z" fill="rgb(254,254,254)"/>
</g>
</svg>