<svg xmlns="http://www.w3.org/2000/svg" width="1940" height="540" viewBox="0 0 1940 540">
<g>
<path d="M 0.14 382.75 L 0.00 540.00 L 0.00 0.00 L 1940.00 0.00 L 1940.00 540.00 L 928.00 540.00 L 928.00 236.00 L 952.06 236.00 C974.72,236.00 976.63,235.85 984.81,233.51 C995.49,230.44 1011.20,228.01 1020.37,228.01 C1035.61,227.99 1056.83,232.85 1069.50,239.24 C1086.99,248.08 1102.02,263.95 1110.72,282.76 C1123.54,310.51 1123.03,350.27 1109.51,377.00 C1099.84,396.11 1086.05,409.32 1065.57,419.11 C1044.61,429.12 1020.08,432.80 993.21,429.98 C987.87,429.42 982.49,428.74 981.26,428.46 L 979.02 427.97 L 978.50 520.45 L 971.56 524.71 C962.65,530.18 951.97,534.61 940.56,537.56 L 931.50 539.90 L 1435.75 539.95 L 1940.00 540.00 L 1939.98 389.25 L 1939.95 238.50 L 1937.65 244.11 C1936.38,247.19 1934.36,251.09 1933.16,252.78 C1926.39,262.28 1911.59,268.84 1900.27,267.34 C1888.81,265.82 1877.35,257.48 1871.68,246.52 C1868.83,241.02 1868.56,239.68 1868.56,231.00 C1868.56,222.54 1868.87,220.90 1871.38,216.00 C1879.15,200.86 1894.30,193.11 1910.57,195.94 C1924.43,198.35 1933.58,206.11 1938.14,219.30 C1939.89,224.36 1939.94,221.55 1939.97,112.25 L 1940.00 0.00 L 1082.75 0.14 C614.96,0.22 236.43,0.63 236.43,1.06 C236.43,1.06 236.45,1.07 236.50,1.07 C314.10,6.58 380.73,49.88 417.18,118.50 C419.81,123.45 421.97,127.84 421.98,128.25 C421.99,128.66 419.19,129.01 415.75,129.02 C412.31,129.03 406.71,129.44 403.31,129.94 C398.22,130.67 345.77,144.91 337.00,147.94 C335.62,148.41 330.83,149.79 326.34,151.01 L 318.18 153.23 L 296.34 134.40 C284.33,124.05 259.65,102.73 241.50,87.02 C223.35,71.32 203.87,54.50 198.21,49.65 L 187.92 40.82 L 183.20 41.95 C175.89,43.71 175.34,44.28 177.59,47.75 C178.64,49.37 184.76,57.62 191.20,66.09 C197.63,74.57 213.47,95.66 226.39,112.96 C249.85,144.37 249.89,144.44 253.94,155.82 C258.64,169.02 258.82,170.58 255.75,171.27 C253.37,171.80 239.11,175.80 212.00,183.55 C190.15,189.79 161.64,199.23 117.00,215.00 C103.43,219.80 78.81,228.35 26.59,246.42 C14.55,250.59 4.33,254.00 3.89,254.00 C2.79,254.00 2.06,249.43 1.10,236.50 C0.63,230.12 0.22,291.49 0.14,382.75 ZM 256.08 439.95 C241.91,442.26 215.94,443.27 202.50,442.03 C136.44,435.94 75.63,400.01 38.56,345.15 C30.04,332.55 17.82,308.32 13.01,294.50 C8.73,282.23 4.80,266.78 5.73,265.96 C6.15,265.59 32.83,259.11 65.00,251.56 C97.18,244.01 135.88,234.93 151.00,231.38 C186.93,222.94 197.63,220.22 220.50,213.69 C259.57,202.53 266.12,200.78 266.68,201.35 C267.00,201.67 268.57,207.23 270.17,213.71 C270.91,216.71 271.50,218.73 271.89,220.78 C273.14,227.22 272.55,234.03 269.16,272.71 C268.80,276.78 268.41,281.19 267.99,286.00 C264.34,327.95 262.79,350.12 263.47,350.80 C263.81,351.15 266.63,350.54 269.73,349.46 C275.22,347.55 275.41,347.36 277.11,342.00 C280.65,330.83 294.49,286.45 305.48,251.00 C311.71,230.93 318.90,207.75 321.47,199.50 C324.03,191.25 326.44,184.19 326.81,183.80 C327.41,183.20 361.32,173.33 395.00,163.97 C401.20,162.24 410.54,158.53 417.80,154.91 C424.56,151.53 430.25,148.93 430.45,149.13 C432.36,151.13 438.87,178.51 441.11,194.00 C442.98,206.88 442.72,238.23 440.64,252.00 C429.39,326.26 385.14,387.19 318.67,419.93 C297.41,430.41 279.55,436.12 256.08,439.95 ZM 1505.20 429.38 L 1504.47 429.61 C1498.07,431.63 1495.24,432.52 1493.99,431.50 C1493.00,430.68 1493.00,428.65 1493.00,425.02 L 1493.00 424.50 C1493.00,420.12 1492.58,417.00 1491.99,417.00 C1491.44,417.00 1486.70,418.83 1481.48,421.06 C1461.32,429.67 1440.11,432.74 1422.31,429.63 C1375.32,421.41 1345.01,382.74 1345.00,331.00 C1345.00,304.49 1352.89,282.01 1368.69,263.47 C1383.24,246.40 1401.68,235.79 1425.21,230.93 C1434.07,229.10 1437.72,228.88 1451.50,229.33 C1462.52,229.69 1470.29,230.50 1476.45,231.93 C1481.37,233.07 1485.53,234.00 1485.70,234.00 C1485.86,234.00 1486.00,212.43 1486.00,186.07 L 1486.00 138.15 L 1488.74 135.99 C1490.25,134.80 1496.44,131.39 1502.49,128.40 C1512.66,123.38 1522.13,120.29 1532.75,118.53 L 1537.00 117.82 L 1537.00 413.73 L 1533.16 416.28 C1526.38,420.76 1513.74,426.69 1505.20,429.38 ZM 1815.09 429.02 C1810.20,430.66 1805.48,432.00 1804.60,432.00 C1803.23,432.00 1803.00,430.42 1803.00,421.00 C1803.00,414.95 1802.64,410.00 1802.20,410.00 C1801.75,410.00 1799.84,411.61 1797.95,413.57 C1792.38,419.34 1783.40,424.78 1774.66,427.67 C1767.21,430.13 1765.10,430.37 1750.50,430.43 C1738.22,430.48 1732.64,430.07 1726.50,428.63 C1690.60,420.25 1666.48,396.77 1657.02,360.97 C1654.20,350.32 1653.17,327.12 1654.97,314.82 C1659.97,280.57 1681.35,251.33 1711.61,237.35 C1723.42,231.90 1732.74,229.81 1747.69,229.26 C1763.46,228.68 1774.57,230.40 1788.95,235.67 C1790.08,236.08 1791.11,236.46 1792.05,236.81 C1798.73,239.27 1800.96,240.09 1801.69,239.38 C1802.06,239.02 1802.04,238.27 1802.01,237.15 C1802.01,236.84 1802.00,236.49 1802.00,236.12 L 1802.00 232.00 L 1846.00 232.00 L 1846.00 413.72 L 1840.25 417.24 C1831.33,422.71 1824.74,425.79 1815.09,429.02 ZM 679.62 417.38 L 676.92 422.00 L 611.21 421.93 C544.30,421.86 541.96,421.75 535.16,418.09 C530.21,415.43 524.57,409.25 521.84,403.50 L 519.00 397.50 L 519.00 146.50 L 521.84 140.49 C524.88,134.07 529.46,129.40 536.28,125.76 L 540.50 123.50 L 617.33 123.23 L 694.17 122.95 L 693.52 126.23 C690.60,140.87 685.28,155.49 679.18,165.59 L 676.51 170.00 L 570.97 170.00 L 571.50 235.50 L 623.75 235.76 L 676.00 236.02 L 676.00 283.00 L 571.00 283.00 L 571.00 375.00 L 632.50 375.00 C691.18,375.00 694.00,375.08 694.00,376.81 C694.00,383.73 685.82,406.80 679.62,417.38 ZM 1263.76 428.05 C1233.52,434.22 1204.94,429.52 1181.44,414.51 C1173.91,409.70 1161.10,397.34 1155.37,389.34 C1141.93,370.59 1135.31,343.81 1137.87,318.53 C1141.10,286.66 1156.45,260.32 1181.07,244.38 C1207.52,227.27 1244.85,223.33 1274.62,234.50 C1301.35,244.54 1319.34,267.09 1324.61,297.19 C1325.90,304.55 1326.11,309.94 1325.59,322.89 C1325.24,331.90 1324.71,339.67 1324.41,340.14 C1324.12,340.61 1293.27,341.00 1255.85,341.00 L 1187.82 341.00 L 1188.53 345.25 C1193.04,372.28 1210.53,387.82 1239.50,390.53 C1256.48,392.12 1281.70,385.21 1309.04,371.48 C1313.95,369.02 1318.20,367.00 1318.50,367.00 C1318.80,367.00 1318.92,376.79 1318.77,388.75 L 1318.50 410.50 L 1307.65 414.78 C1293.71,420.27 1276.75,425.40 1263.76,428.05 ZM 779.73 391.75 L 754.81 422.00 L 730.41 422.00 C716.98,422.00 706.00,421.75 706.00,421.45 C706.00,421.15 722.54,400.64 742.75,375.88 C762.96,351.12 779.90,330.28 780.40,329.58 C781.23,328.41 768.60,312.43 714.96,246.76 C710.58,241.41 707.00,236.79 707.00,236.51 C707.00,236.23 720.66,236.00 737.37,236.00 L 767.73 236.00 L 775.65 245.75 C780.00,251.11 790.03,263.51 797.93,273.31 C809.54,287.69 812.54,290.87 813.53,289.81 C814.21,289.09 823.25,278.12 833.63,265.44 C844.01,252.75 853.71,240.93 855.20,239.17 L 857.90 235.97 L 908.10 236.50 L 888.94 259.50 C855.40,299.76 845.71,311.37 841.34,316.56 L 837.07 321.63 L 877.54 371.33 C899.79,398.66 918.00,421.25 918.00,421.51 C918.00,421.78 904.30,422.00 887.56,422.00 L 857.12 422.00 L 832.31 391.54 C818.43,374.50 806.87,361.17 806.07,361.29 C805.29,361.41 793.43,375.11 779.73,391.75 ZM 0.17 108.75 C0.27,167.05 0.48,213.09 0.65,213.09 C0.65,213.09 0.66,213.06 0.66,213.00 C2.94,180.28 8.66,156.32 20.41,130.20 C48.16,68.51 102.33,23.60 169.00,7.00 C182.05,3.75 191.86,2.22 207.00,1.08 C213.07,0.62 171.63,0.22 108.75,0.14 L 0.00 0.00 ZM 998.00 393.78 C1024.42,396.01 1044.47,387.72 1057.13,369.31 C1070.54,349.82 1072.21,317.21 1060.95,294.89 C1054.68,282.48 1042.66,272.65 1028.50,268.36 C1019.65,265.67 1000.55,266.07 988.50,269.18 L 979.50 271.50 L 979.50 390.37 L 984.50 391.72 C987.25,392.46 993.33,393.39 998.00,393.78 ZM 1741.69 389.50 C1744.34,390.23 1750.71,390.86 1755.85,390.91 C1763.72,390.99 1766.61,390.53 1774.07,388.03 C1778.95,386.39 1785.66,383.69 1788.97,382.01 L 1795.00 378.97 L 1795.00 276.30 L 1787.82 272.99 C1772.55,265.95 1761.10,264.52 1747.59,267.98 C1737.17,270.64 1730.87,274.26 1723.26,281.94 C1716.31,288.95 1710.39,299.65 1707.47,310.50 C1704.92,319.99 1704.39,339.89 1706.42,349.92 C1710.60,370.52 1722.91,384.34 1741.69,389.50 ZM 1433.35 389.65 C1441.72,391.79 1455.79,390.73 1466.68,387.13 C1471.73,385.47 1478.15,382.95 1480.94,381.53 L 1486.02 378.96 L 1485.76 325.73 L 1485.50 272.50 L 1477.50 269.67 C1467.70,266.20 1454.07,265.13 1443.15,266.97 C1422.19,270.51 1405.91,286.34 1399.42,309.50 C1396.94,318.35 1396.35,341.55 1398.35,351.25 C1402.54,371.49 1414.75,384.89 1433.35,389.65 ZM 1625.01 236.00 L 1624.50 422.50 L 1600.43 422.77 C1587.20,422.91 1576.06,422.73 1575.68,422.35 C1575.31,421.97 1575.00,379.89 1575.00,328.83 L 1575.00 236.00 ZM 1189.65 308.75 L 1189.05 312.00 L 1278.00 312.00 L 1278.00 307.61 C1278.00,297.93 1271.92,285.00 1264.16,278.16 C1262.70,276.87 1258.57,274.40 1255.00,272.66 C1248.83,269.66 1247.92,269.50 1237.00,269.55 C1224.25,269.61 1218.59,271.18 1209.52,277.19 C1200.91,282.90 1191.75,297.45 1189.65,308.75 ZM 1893.58 259.58 C1904.14,264.04 1916.07,261.59 1925.31,253.07 C1933.77,245.27 1936.68,233.88 1933.17,222.33 C1929.21,209.29 1918.27,201.00 1905.02,201.00 C1896.19,201.00 1890.08,203.23 1884.06,208.64 C1877.07,214.92 1874.00,221.81 1874.01,231.19 C1874.02,236.80 1874.57,239.66 1876.39,243.50 C1879.56,250.18 1886.35,256.53 1893.58,259.58 ZM 1614.13 193.74 C1608.71,196.54 1606.81,197.00 1600.57,197.00 C1594.49,197.00 1592.34,196.51 1587.22,193.95 C1580.65,190.67 1576.31,186.40 1572.77,179.72 C1569.32,173.20 1569.55,161.43 1573.29,153.82 C1578.25,143.73 1587.01,137.97 1598.50,137.24 C1611.35,136.43 1621.56,142.20 1626.91,153.29 C1630.93,161.63 1631.61,167.21 1629.50,174.71 C1627.11,183.24 1621.86,189.73 1614.13,193.74 ZM 427.75 426.11 C416.41,431.94 402.59,427.14 396.61,415.30 C394.28,410.67 394.44,399.00 396.91,394.21 C401.10,386.06 408.17,382.00 418.15,382.00 C426.26,382.00 432.05,384.76 435.99,390.49 C444.53,402.90 440.71,419.45 427.75,426.11 ZM 408.91 423.68 C414.32,426.53 420.72,426.69 425.79,424.11 C430.47,421.72 432.37,419.61 434.92,413.98 C443.10,395.95 425.98,377.65 408.98,386.25 C394.59,393.53 394.55,416.10 408.91,423.68 ZM 1898.00 234.00 L 1898.00 251.00 L 1893.97 251.00 C1891.61,251.00 1889.73,250.47 1889.45,249.72 C1889.18,249.01 1889.08,239.90 1889.23,229.47 L 1889.50 210.50 L 1901.70 210.70 C1918.25,210.97 1922.00,212.98 1922.00,221.59 C1922.00,225.64 1918.00,232.00 1915.45,232.00 C1913.29,232.00 1913.62,233.28 1918.02,242.04 C1922.41,250.77 1922.24,251.43 1915.85,250.82 C1912.74,250.52 1912.22,249.92 1908.50,242.28 C1904.72,234.51 1904.32,234.05 1901.25,234.03 ZM 412.80 412.75 C412.53,417.84 412.24,418.54 410.25,418.82 C408.01,419.14 408.00,419.09 408.00,405.07 L 408.00 391.00 L 415.25 391.01 C423.65,391.03 426.97,392.38 428.27,396.30 C429.50,399.99 427.49,404.86 424.24,406.10 C421.98,406.96 421.90,407.21 423.21,409.27 C423.98,410.49 425.67,413.22 426.94,415.33 L 429.26 419.16 L 426.42 418.83 C424.17,418.57 422.88,417.31 420.18,412.75 C418.00,409.07 416.11,407.00 414.94,407.00 C413.40,407.00 413.05,407.94 412.80,412.75 ZM 1898.75 228.43 C1899.99,229.70 1909.14,228.18 1911.14,226.38 C1913.34,224.39 1913.54,221.12 1911.63,218.51 C1910.64,217.15 1908.62,216.53 1904.13,216.20 L 1898.00 215.76 L 1898.00 221.71 C1898.00,224.99 1898.34,228.01 1898.75,228.43 ZM 412.67 402.33 C413.03,402.70 415.23,403.00 417.54,403.00 C422.27,403.00 424.32,401.30 423.83,397.81 C423.53,395.75 422.89,395.47 417.75,395.20 L 412.00 394.90 L 412.00 398.28 C412.00,400.14 412.30,401.97 412.67,402.33 Z" fill="rgb(31,53,97)"/>
<path d="M 0.52 205.80 C0.53,205.81 0.53,205.81 0.53,205.80 C0.82,205.51 1.50,201.28 2.04,196.39 C2.90,188.67 4.32,180.57 6.23,172.41 C3.48,184.80 1.71,197.97 0.66,213.00 C0.66,213.06 0.65,213.09 0.65,213.09 C0.61,213.09 0.57,210.51 0.52,205.80 ZM 198.23 1.84 C200.36,1.52 202.11,1.22 203.00,1.01 C204.18,0.74 187.83,0.48 161.95,0.31 C193.39,0.48 211.12,0.77 207.00,1.08 C203.87,1.31 200.98,1.56 198.23,1.84 ZM 248.04 0.93 C243.06,0.97 240.49,1.00 240.49,1.04 C240.49,1.04 240.49,1.04 240.50,1.04 C243.25,1.49 249.36,2.34 254.08,2.94 C261.06,3.82 268.82,5.42 276.85,7.55 C263.82,4.24 250.33,2.05 236.50,1.07 C236.45,1.07 236.43,1.06 236.43,1.06 C236.43,1.02 240.40,0.97 248.04,0.93 ZM 349.86 41.28 C377.67,61.02 400.54,87.18 417.18,118.50 C400.47,87.04 377.41,60.90 349.86,41.28 ZM 112.70 29.30 C124.01,22.92 135.97,17.48 148.50,13.04 C152.98,11.46 158.12,9.89 163.39,8.47 C145.45,13.42 128.46,20.44 112.70,29.30 ZM 0.90 237.85 C0.97,236.07 1.03,235.58 1.10,236.50 C1.27,238.73 1.43,240.71 1.58,242.46 C1.35,240.62 1.11,238.99 0.90,237.85 ZM 18.39 134.81 C19.04,133.25 19.71,131.72 20.40,130.20 C22.21,126.18 24.13,122.24 26.16,118.36 C24.13,122.24 22.21,126.18 20.41,130.20 C19.71,131.74 19.04,133.28 18.39,134.81 ZM 45.20 239.98 C65.91,232.81 81.33,227.46 93.02,223.39 C80.27,227.83 64.08,233.45 45.20,239.98 ZM 3.13 253.10 C3.23,253.36 3.33,253.56 3.44,253.71 C3.40,253.71 3.37,253.70 3.35,253.69 C3.29,253.63 3.22,253.42 3.13,253.10 Z" fill="rgb(145,155,177)"/>
<path d="M 3.13 253.10 C3.22,253.42 3.29,253.63 3.35,253.69 C3.37,253.70 3.40,253.71 3.44,253.71 C3.58,253.91 3.73,254.00 3.89,254.00 C4.33,254.00 14.55,250.59 26.59,246.42 C33.23,244.12 39.42,241.98 45.20,239.98 C46.52,239.52 47.83,239.07 49.11,238.63 C67.85,232.14 82.05,227.21 92.99,223.40 L 93.02 223.39 C103.74,219.66 111.33,217.00 117.00,215.00 C161.64,199.23 190.15,189.79 212.00,183.55 C239.11,175.80 253.37,171.80 255.75,171.27 C258.82,170.58 258.64,169.02 253.94,155.82 C249.89,144.44 249.85,144.37 226.39,112.96 C213.47,95.66 197.63,74.57 191.20,66.09 C184.76,57.62 178.64,49.37 177.59,47.75 C175.34,44.28 175.89,43.71 183.20,41.95 L 187.92 40.82 L 198.21 49.65 C203.87,54.50 223.35,71.32 241.50,87.02 C259.65,102.73 284.33,124.05 296.34,134.40 L 318.18 153.23 L 326.34 151.01 C330.83,149.79 335.62,148.41 337.00,147.94 C345.77,144.91 398.22,130.67 403.31,129.94 C406.71,129.44 412.31,129.03 415.75,129.02 C418.78,129.01 421.32,128.74 421.87,128.39 C424.97,135.15 427.76,142.09 430.23,149.15 C429.10,149.46 423.88,151.87 417.80,154.91 C410.54,158.53 401.20,162.24 395.00,163.97 C361.32,173.33 327.41,183.20 326.81,183.80 C326.44,184.19 324.03,191.25 321.47,199.50 C318.90,207.75 311.71,230.93 305.48,251.00 C294.49,286.45 280.65,330.83 277.11,342.00 C275.41,347.36 275.22,347.55 269.73,349.46 C266.63,350.54 263.81,351.15 263.47,350.80 C262.79,350.12 264.34,327.95 267.99,286.00 C268.41,281.19 268.80,276.78 269.16,272.71 C272.55,234.03 273.14,227.22 271.89,220.78 C271.50,218.73 270.91,216.71 270.17,213.71 C268.57,207.23 267.00,201.67 266.68,201.35 C266.12,200.78 259.57,202.53 220.50,213.69 C197.63,220.22 186.93,222.94 151.00,231.38 C135.88,234.93 97.18,244.01 65.00,251.56 C32.83,259.11 6.15,265.59 5.73,265.96 C5.14,266.48 6.48,272.79 8.63,280.46 C7.10,275.18 5.88,270.28 5.72,268.77 C5.54,266.93 5.06,264.91 4.67,264.28 C4.29,263.65 3.75,260.97 3.48,258.32 C3.27,256.17 3.03,254.03 2.80,251.97 C2.91,252.43 3.02,252.81 3.13,253.10 ZM 64.04 376.26 C88.40,400.99 118.36,419.78 151.17,431.02 C117.76,419.70 88.09,400.85 64.04,376.26 ZM 256.08 439.95 C262.33,438.93 268.17,437.78 273.79,436.44 C268.05,437.81 262.01,439.02 255.47,440.13 C247.01,441.56 241.12,442.11 230.23,442.27 C239.77,441.87 249.28,441.06 256.08,439.95 ZM 17.08 304.75 C21.57,315.11 27.86,327.48 33.55,337.14 C27.25,326.90 21.74,316.08 17.08,304.75 ZM 442.33 213.98 C442.65,227.64 442.08,242.45 440.64,252.00 C441.95,243.31 442.54,227.62 442.33,213.98 ZM 411.19 107.89 C405.03,97.62 398.16,87.96 390.64,78.98 C396.63,86.06 402.11,93.45 406.95,101.00 C408.40,103.26 409.81,105.56 411.19,107.89 ZM 436.71 171.04 C438.30,177.56 439.60,184.12 440.60,190.67 C439.62,184.74 438.20,177.66 436.71,171.04 ZM 355.40 45.35 C353.57,43.97 351.73,42.61 349.86,41.29 L 349.86 41.28 C344.20,37.26 338.35,33.50 332.33,30.03 C334.74,31.40 337.10,32.80 339.38,34.22 C344.82,37.62 350.17,41.35 355.40,45.35 ZM 280.58 8.54 C279.34,8.20 278.10,7.87 276.85,7.55 C268.82,5.42 261.06,3.82 254.08,2.94 C262.40,3.99 271.39,5.92 280.58,8.54 ZM 290.71 431.61 C299.90,428.53 308.93,424.73 318.67,419.93 C308.90,424.75 299.93,428.53 290.71,431.61 ZM 290.71 431.61 C285.19,433.46 279.61,435.05 273.79,436.44 C279.67,435.03 285.23,433.44 290.71,431.61 ZM 182.44 439.24 C184.18,439.57 185.92,439.87 187.67,440.15 C185.94,439.88 184.20,439.58 182.44,439.24 Z" fill="rgb(247,185,22)"/>
<path d="M 0.00 387.83 C0.00,304.14 0.21,235.88 0.47,236.14 C0.91,236.58 2.38,247.37 3.48,258.32 C3.75,260.97 4.29,263.65 4.67,264.28 C5.06,264.91 5.54,266.93 5.72,268.77 C5.91,270.60 7.66,277.36 9.61,283.79 C32.58,359.59 91.94,416.65 167.89,435.96 C187.14,440.86 199.62,442.34 221.50,442.33 C238.46,442.32 245.00,441.90 255.47,440.13 C279.93,435.99 297.40,430.41 318.67,419.93 C385.14,387.19 429.39,326.26 440.64,252.00 C443.00,236.39 443.01,206.67 440.65,191.00 C435.88,159.35 423.97,127.54 406.95,101.00 C390.18,74.85 365.75,50.70 339.38,34.22 C314.54,18.70 280.82,6.33 254.08,2.94 C249.36,2.34 243.25,1.49 240.50,1.04 C237.75,0.60 619.01,0.18 1087.75,0.12 L 1940.00 0.00 L 1939.97 112.25 C1939.94,221.55 1939.89,224.36 1938.14,219.30 C1933.58,206.11 1924.43,198.35 1910.57,195.94 C1894.30,193.11 1879.15,200.86 1871.38,216.00 C1868.87,220.90 1868.56,222.54 1868.56,231.00 C1868.56,239.68 1868.83,241.02 1871.68,246.52 C1877.35,257.48 1888.81,265.82 1900.27,267.34 C1911.59,268.84 1926.39,262.28 1933.16,252.78 C1934.36,251.09 1936.38,247.19 1937.65,244.11 L 1939.95 238.50 L 1939.98 389.25 L 1940.00 540.00 L 1435.75 539.95 L 931.50 539.90 L 940.56 537.56 C951.97,534.61 962.65,530.18 971.56,524.71 L 978.50 520.45 L 978.76 474.21 L 979.02 427.97 L 981.26 428.46 C982.49,428.74 987.87,429.42 993.21,429.98 C1020.08,432.80 1044.61,429.12 1065.57,419.11 C1086.05,409.32 1099.84,396.11 1109.51,377.00 C1123.03,350.27 1123.54,310.51 1110.72,282.76 C1102.02,263.95 1086.99,248.08 1069.50,239.24 C1056.83,232.85 1035.61,227.99 1020.37,228.01 C1011.20,228.01 995.49,230.44 984.81,233.51 C976.63,235.85 974.72,236.00 952.06,236.00 L 928.00 236.00 L 928.00 388.00 L 928.00 540.00 L 464.00 540.00 L 0.00 540.00 L 0.00 387.83 ZM 1505.20 429.38 C1513.74,426.69 1526.38,420.76 1533.16,416.28 L 1537.00 413.73 L 1537.00 265.78 L 1537.00 117.82 L 1532.75 118.53 C1522.13,120.29 1512.66,123.38 1502.49,128.40 C1496.44,131.39 1490.25,134.80 1488.74,135.99 L 1486.00 138.15 L 1486.00 186.07 C1486.00,212.43 1485.86,234.00 1485.70,234.00 C1485.53,234.00 1481.37,233.07 1476.45,231.93 C1470.29,230.50 1462.52,229.69 1451.50,229.33 C1437.72,228.88 1434.07,229.10 1425.21,230.93 C1401.68,235.79 1383.24,246.40 1368.69,263.47 C1352.89,282.01 1345.00,304.49 1345.00,331.00 C1345.01,382.74 1375.32,421.41 1422.31,429.63 C1440.11,432.74 1461.32,429.67 1481.48,421.06 C1486.70,418.83 1491.44,417.00 1491.99,417.00 C1492.58,417.00 1493.00,420.12 1493.00,424.50 C1493.00,433.41 1492.75,433.31 1505.20,429.38 ZM 1815.09 429.02 C1824.74,425.79 1831.33,422.71 1840.25,417.24 L 1846.00 413.72 L 1846.00 322.86 L 1846.00 232.00 L 1824.00 232.00 L 1802.00 232.00 L 1802.00 236.12 C1802.00,240.85 1803.22,240.89 1788.95,235.67 C1774.57,230.40 1763.46,228.68 1747.69,229.26 C1732.74,229.81 1723.42,231.90 1711.61,237.35 C1681.35,251.33 1659.97,280.57 1654.97,314.82 C1653.17,327.12 1654.20,350.32 1657.02,360.97 C1666.48,396.77 1690.60,420.25 1726.50,428.63 C1732.64,430.07 1738.22,430.48 1750.50,430.43 C1765.10,430.37 1767.21,430.13 1774.66,427.67 C1783.40,424.78 1792.38,419.34 1797.95,413.57 C1799.84,411.61 1801.75,410.00 1802.20,410.00 C1802.64,410.00 1803.00,414.95 1803.00,421.00 C1803.00,430.42 1803.23,432.00 1804.60,432.00 C1805.48,432.00 1810.20,430.66 1815.09,429.02 ZM 1263.76 428.05 C1276.75,425.40 1293.71,420.27 1307.65,414.78 L 1318.50 410.50 L 1318.77 388.75 C1318.92,376.79 1318.80,367.00 1318.50,367.00 C1318.20,367.00 1313.95,369.02 1309.04,371.48 C1281.70,385.21 1256.48,392.12 1239.50,390.53 C1210.53,387.82 1193.04,372.28 1188.53,345.25 L 1187.82 341.00 L 1255.85 341.00 C1293.27,341.00 1324.12,340.61 1324.41,340.14 C1324.71,339.67 1325.24,331.90 1325.59,322.89 C1326.11,309.94 1325.90,304.55 1324.61,297.19 C1319.34,267.09 1301.35,244.54 1274.62,234.50 C1244.85,223.33 1207.52,227.27 1181.07,244.38 C1156.45,260.32 1141.10,286.66 1137.87,318.53 C1135.31,343.81 1141.93,370.59 1155.37,389.34 C1161.10,397.34 1173.91,409.70 1181.44,414.51 C1204.94,429.52 1233.52,434.22 1263.76,428.05 ZM 427.75 426.11 C440.71,419.45 444.53,402.90 435.99,390.49 C432.05,384.76 426.26,382.00 418.15,382.00 C408.17,382.00 401.10,386.06 396.91,394.21 C394.44,399.00 394.28,410.67 396.61,415.30 C402.59,427.14 416.41,431.94 427.75,426.11 ZM 1624.76 329.25 L 1625.01 236.00 L 1600.01 236.00 L 1575.00 236.00 L 1575.00 328.83 C1575.00,379.89 1575.31,421.97 1575.68,422.35 C1576.06,422.73 1587.20,422.91 1600.43,422.77 L 1624.50 422.50 L 1624.76 329.25 ZM 679.62 417.38 C685.82,406.80 694.00,383.73 694.00,376.81 C694.00,375.08 691.18,375.00 632.50,375.00 L 571.00 375.00 L 571.00 329.00 L 571.00 283.00 L 623.50 283.00 L 676.00 283.00 L 676.00 259.51 L 676.00 236.02 L 623.75 235.76 L 571.50 235.50 L 571.24 202.75 L 570.97 170.00 L 623.74 170.00 L 676.51 170.00 L 679.18 165.59 C685.28,155.49 690.60,140.87 693.52,126.23 L 694.17 122.95 L 617.33 123.23 L 540.50 123.50 L 536.28 125.76 C529.46,129.40 524.88,134.07 521.84,140.49 L 519.00 146.50 L 519.00 272.00 L 519.00 397.50 L 521.84 403.50 C524.57,409.25 530.21,415.43 535.16,418.09 C541.96,421.75 544.30,421.86 611.21,421.93 L 676.92 422.00 L 679.62 417.38 ZM 779.73 391.75 C793.43,375.11 805.29,361.41 806.07,361.29 C806.87,361.17 818.43,374.50 832.31,391.54 L 857.12 422.00 L 887.56 422.00 C904.30,422.00 918.00,421.78 918.00,421.51 C918.00,421.25 899.79,398.66 877.54,371.33 L 837.07 321.63 L 841.34 316.56 C845.71,311.37 855.40,299.76 888.94,259.50 L 908.10 236.50 L 883.00 236.23 L 857.90 235.97 L 855.20 239.17 C853.71,240.93 844.01,252.75 833.63,265.44 C823.25,278.12 814.21,289.09 813.53,289.81 C812.54,290.87 809.54,287.69 797.93,273.31 C790.03,263.51 780.00,251.11 775.65,245.75 L 767.73 236.00 L 737.37 236.00 C720.66,236.00 707.00,236.23 707.00,236.51 C707.00,236.79 710.58,241.41 714.96,246.76 C768.60,312.43 781.23,328.41 780.40,329.58 C779.90,330.28 762.96,351.12 742.75,375.88 C722.54,400.64 706.00,421.15 706.00,421.45 C706.00,421.75 716.98,422.00 730.41,422.00 L 754.81 422.00 L 779.73 391.75 ZM 1614.13 193.74 C1621.86,189.73 1627.11,183.24 1629.50,174.71 C1631.61,167.21 1630.93,161.63 1626.91,153.29 C1621.56,142.20 1611.35,136.43 1598.50,137.24 C1587.01,137.97 1578.25,143.73 1573.29,153.82 C1569.55,161.43 1569.32,173.20 1572.77,179.72 C1576.31,186.40 1580.65,190.67 1587.22,193.95 C1592.34,196.51 1594.49,197.00 1600.57,197.00 C1606.81,197.00 1608.71,196.54 1614.13,193.74 ZM 998.00 393.78 C993.33,393.39 987.25,392.46 984.50,391.72 L 979.50 390.37 L 979.50 330.93 L 979.50 271.50 L 988.50 269.18 C1000.55,266.07 1019.65,265.67 1028.50,268.36 C1042.66,272.65 1054.68,282.48 1060.95,294.89 C1072.21,317.21 1070.54,349.82 1057.13,369.31 C1044.47,387.72 1024.42,396.01 998.00,393.78 ZM 1893.58 259.58 C1886.35,256.53 1879.56,250.18 1876.39,243.50 C1874.57,239.66 1874.02,236.80 1874.01,231.19 C1874.00,221.81 1877.07,214.92 1884.06,208.64 C1890.08,203.23 1896.19,201.00 1905.02,201.00 C1918.27,201.00 1929.21,209.29 1933.17,222.33 C1936.68,233.88 1933.77,245.27 1925.31,253.07 C1916.07,261.59 1904.14,264.04 1893.58,259.58 ZM 1898.00 242.50 L 1898.00 234.00 L 1901.25 234.03 C1904.32,234.05 1904.72,234.51 1908.50,242.28 C1912.22,249.92 1912.74,250.52 1915.85,250.82 C1922.24,251.43 1922.41,250.77 1918.02,242.04 C1913.62,233.28 1913.29,232.00 1915.45,232.00 C1918.00,232.00 1922.00,225.64 1922.00,221.59 C1922.00,212.98 1918.25,210.97 1901.70,210.70 L 1889.50 210.50 L 1889.23 229.47 C1889.08,239.90 1889.18,249.01 1889.45,249.72 C1889.73,250.47 1891.61,251.00 1893.97,251.00 L 1898.00 251.00 L 1898.00 242.50 ZM 0.00 103.17 L 0.00 0.00 L 103.25 0.10 C160.04,0.16 204.93,0.57 203.00,1.01 C201.07,1.46 195.23,2.33 190.00,2.96 C178.76,4.30 161.04,8.60 148.50,13.04 C90.88,33.44 45.18,75.24 20.40,130.20 C11.15,150.72 4.41,175.00 2.04,196.39 C1.50,201.28 0.82,205.51 0.53,205.80 C0.24,206.10 0.00,159.91 0.00,103.17 ZM 1433.35 389.65 C1414.75,384.89 1402.54,371.49 1398.35,351.25 C1396.35,341.55 1396.94,318.35 1399.42,309.50 C1405.91,286.34 1422.19,270.51 1443.15,266.97 C1454.07,265.13 1467.70,266.20 1477.50,269.67 L 1485.50 272.50 L 1485.76 325.73 L 1486.02 378.96 L 1480.94 381.53 C1478.15,382.95 1471.73,385.47 1466.68,387.13 C1455.79,390.73 1441.72,391.79 1433.35,389.65 ZM 1741.69 389.50 C1722.91,384.34 1710.60,370.52 1706.42,349.92 C1704.39,339.89 1704.92,319.99 1707.47,310.50 C1710.39,299.65 1716.31,288.95 1723.26,281.94 C1730.87,274.26 1737.17,270.64 1747.59,267.98 C1761.10,264.52 1772.55,265.95 1787.82,272.99 L 1795.00 276.30 L 1795.00 327.63 L 1795.00 378.97 L 1788.97 382.01 C1785.66,383.69 1778.95,386.39 1774.07,388.03 C1766.61,390.53 1763.72,390.99 1755.85,390.91 C1750.71,390.86 1744.34,390.23 1741.69,389.50 ZM 1189.65 308.75 C1191.75,297.45 1200.91,282.90 1209.52,277.19 C1218.59,271.18 1224.25,269.61 1237.00,269.55 C1247.92,269.50 1248.83,269.66 1255.00,272.66 C1258.57,274.40 1262.70,276.87 1264.16,278.16 C1271.92,285.00 1278.00,297.93 1278.00,307.61 L 1278.00 312.00 L 1233.53 312.00 L 1189.05 312.00 L 1189.65 308.75 ZM 408.91 423.68 C394.55,416.10 394.59,393.53 408.98,386.25 C425.98,377.65 443.10,395.95 434.92,413.98 C432.37,419.61 430.47,421.72 425.79,424.11 C420.72,426.69 414.32,426.53 408.91,423.68 ZM 412.80 412.75 C413.05,407.94 413.40,407.00 414.94,407.00 C416.11,407.00 418.00,409.07 420.18,412.75 C422.88,417.31 424.17,418.57 426.42,418.83 L 429.26 419.16 L 426.94 415.33 C425.67,413.22 423.98,410.49 423.21,409.27 C421.90,407.21 421.98,406.96 424.24,406.10 C427.49,404.86 429.50,399.99 428.27,396.30 C426.97,392.38 423.65,391.03 415.25,391.01 L 408.00 391.00 L 408.00 405.07 C408.00,419.09 408.01,419.14 410.25,418.82 C412.24,418.54 412.53,417.84 412.80,412.75 ZM 1898.75 228.43 C1898.34,228.01 1898.00,224.99 1898.00,221.71 L 1898.00 215.76 L 1904.13 216.20 C1908.62,216.53 1910.64,217.15 1911.63,218.51 C1913.54,221.12 1913.34,224.39 1911.14,226.38 C1909.14,228.18 1899.99,229.70 1898.75,228.43 ZM 412.67 402.33 C412.30,401.97 412.00,400.14 412.00,398.28 L 412.00 394.90 L 417.75 395.20 C422.89,395.47 423.53,395.75 423.83,397.81 C424.32,401.30 422.27,403.00 417.54,403.00 C415.23,403.00 413.03,402.70 412.67,402.33 Z" fill="rgb(254,254,254)"/>
</g>
</svg>