<svg xmlns="http://www.w3.org/2000/svg" width="2000" height="480" viewBox="0 0 2000 480">
<g>
<path d="M 1216.03 438.96 C1185.20,442.74 1156.68,436.58 1137.93,422.11 C1117.95,406.68 1108.49,381.47 1111.85,352.56 C1113.84,335.47 1118.34,324.99 1128.22,314.43 C1145.46,295.99 1165.67,288.79 1222.00,281.03 C1265.28,275.06 1273.20,272.65 1277.69,264.09 C1280.77,258.23 1280.92,247.71 1278.01,242.01 C1275.25,236.61 1267.98,231.37 1259.57,228.73 C1250.18,225.79 1231.20,225.56 1223.35,228.30 C1212.36,232.13 1205.20,239.19 1201.45,249.86 C1200.56,252.41 1199.48,255.18 1199.05,256.00 C1198.39,257.29 1192.85,257.54 1160.14,257.76 L 1122.00 258.02 L 1122.00 252.64 C1122.00,244.62 1126.31,229.14 1131.15,219.78 C1136.63,209.18 1149.07,196.38 1160.00,190.10 C1180.52,178.32 1202.04,173.32 1236.50,172.32 C1301.76,170.43 1340.87,186.98 1353.89,222.00 C1359.45,236.95 1359.28,234.24 1360.01,322.00 C1360.65,399.64 1360.78,403.90 1362.75,412.00 C1363.88,416.67 1365.74,422.93 1366.87,425.91 C1368.00,428.88 1368.69,431.69 1368.40,432.16 C1368.12,432.62 1349.45,433.00 1326.92,433.00 L 1285.95 433.00 L 1284.96 430.40 C1284.42,428.98 1283.30,423.95 1282.48,419.23 C1281.66,414.51 1280.77,410.44 1280.51,410.18 C1280.25,409.92 1278.12,411.48 1275.77,413.64 C1261.91,426.40 1238.86,436.17 1216.03,438.96 ZM 416.40 437.06 C405.13,439.34 374.17,440.47 362.67,439.01 C314.59,432.93 279.30,410.48 259.94,373.66 C251.67,357.93 247.27,342.51 244.95,321.13 C238.60,262.57 267.01,209.99 318.50,184.99 C332.13,178.38 339.42,175.96 354.52,173.04 C367.61,170.52 393.74,170.24 407.53,172.47 C461.99,181.31 498.56,217.93 511.00,276.12 C513.10,285.93 515.83,321.40 514.71,324.31 C514.11,325.88 507.37,326.00 421.03,326.00 L 328.00 326.00 L 328.00 328.93 C328.00,334.75 331.12,346.65 334.55,353.90 C340.82,367.16 353.77,377.69 368.46,381.47 C376.06,383.42 391.88,383.44 399.30,381.51 C412.12,378.17 423.77,369.91 429.17,360.35 L 432.19 355.00 L 471.10 355.00 C492.49,355.00 510.00,355.37 510.00,355.82 C510.00,357.93 504.91,371.25 501.52,378.00 C494.29,392.44 480.78,407.74 467.12,416.95 C453.93,425.84 435.31,433.23 416.40,437.06 ZM 845.50 437.04 C833.04,439.43 800.88,440.50 786.00,439.02 C758.03,436.23 731.01,426.30 715.12,412.97 C698.31,398.85 688.18,379.07 686.34,356.75 L 685.70 349.00 L 764.81 349.00 L 765.53 354.25 C766.48,361.22 770.90,369.77 775.88,374.27 C799.62,395.72 848.07,385.85 848.33,359.51 C848.43,349.73 842.50,342.75 830.35,338.34 C824.39,336.17 791.83,328.43 772.17,324.50 C756.34,321.34 739.54,315.96 728.20,310.43 C718.90,305.90 715.47,303.56 708.88,297.26 C702.42,291.09 700.12,288.05 697.00,281.55 C685.26,257.11 688.48,225.94 704.75,206.39 C724.46,182.72 767.30,169.24 815.96,171.39 C880.54,174.24 915.45,197.81 922.06,243.01 C922.70,247.39 922.96,251.65 922.64,252.48 C922.14,253.80 917.13,254.00 884.50,254.00 C855.31,254.00 846.86,253.72 846.58,252.75 C846.38,252.06 845.67,248.85 845.01,245.62 C843.53,238.42 838.34,232.25 831.16,229.16 C820.35,224.52 794.65,224.35 784.64,228.87 C773.13,234.06 770.24,245.50 778.15,254.52 C781.83,258.70 792.56,264.13 803.67,267.42 C811.63,269.78 817.72,271.08 856.00,278.55 C882.65,283.75 893.45,287.84 906.05,297.54 C922.01,309.82 932.02,330.59 931.99,351.32 C931.95,371.98 922.13,395.29 907.85,408.63 C893.42,422.10 871.68,432.01 845.50,437.04 ZM 0.17 401.75 L 0.00 480.00 L 0.00 299.00 L 82.83 299.00 L 83.18 320.75 C83.51,342.02 83.58,342.61 86.17,347.54 C92.12,358.86 102.15,364.46 116.50,364.49 C126.93,364.50 132.67,362.32 137.95,356.32 C142.88,350.71 145.61,343.61 146.96,332.85 C147.63,327.54 148.00,283.70 148.00,211.28 L 148.00 98.00 L 235.06 98.00 L 234.77 224.25 C234.48,350.04 234.47,350.53 232.29,360.00 C225.60,389.04 214.17,407.47 194.40,421.07 C181.44,429.99 159.53,437.02 138.20,439.12 C123.83,440.54 97.64,439.71 86.07,437.48 C51.10,430.74 28.17,414.42 14.41,386.47 C6.64,370.70 2.70,353.83 0.65,327.50 C0.64,327.43 0.64,327.40 0.63,327.40 C0.46,327.40 0.26,360.06 0.17,401.75 ZM 1100.26 434.17 C1090.46,435.31 1039.89,435.94 1032.58,435.01 C1005.85,431.62 988.87,421.94 980.29,405.21 C971.24,387.56 970.00,374.59 970.00,297.35 L 970.00 237.04 L 949.25 236.77 L 928.50 236.50 L 928.23 208.27 L 927.97 180.04 L 948.73 179.77 L 969.50 179.50 L 970.02 99.00 L 1055.05 99.00 L 1055.00 136.25 C1054.97,156.74 1054.96,174.96 1054.98,176.75 L 1055.00 180.00 L 1080.75 180.00 L 1106.50 180.00 L 1106.37 208.25 L 1106.23 236.50 L 1080.62 236.77 L 1055.00 237.03 L 1055.00 356.69 L 1057.33 361.09 C1062.19,370.29 1072.52,373.47 1094.00,372.37 L 1106.50 371.73 L 1106.26 402.61 L 1106.03 433.50 ZM 676.50 434.19 C666.23,435.36 617.91,435.93 609.60,434.98 C579.25,431.49 560.39,418.70 553.04,396.63 C547.90,381.16 547.77,379.13 547.30,305.75 L 546.86 237.00 L 527.01 237.00 C516.10,237.00 506.45,236.73 505.58,236.39 C504.19,235.86 504.00,232.41 504.00,207.91 L 504.00 180.04 L 525.25 179.77 L 546.50 179.50 L 547.02 99.00 L 630.98 99.00 L 631.50 179.50 L 657.27 179.77 L 683.03 180.03 L 682.77 208.27 L 682.50 236.50 L 656.71 236.77 L 630.93 237.03 L 631.21 296.77 L 631.50 356.50 L 634.00 360.96 C639.26,370.35 645.82,372.57 667.26,372.23 L 683.03 371.99 L 682.50 433.50 ZM 1460.26 364.75 L 1459.90 433.00 L 1377.00 433.00 L 1377.00 179.00 L 1458.00 179.00 L 1458.03 201.25 L 1458.07 223.50 L 1462.72 214.50 C1466.35,207.49 1469.30,203.56 1476.05,196.75 C1481.01,191.75 1485.56,188.00 1486.67,188.00 C1488.76,188.00 1549.77,248.56 1548.73,249.61 C1548.40,249.93 1545.74,249.68 1542.82,249.04 C1532.77,246.86 1518.17,246.58 1508.98,248.40 C1485.30,253.09 1469.10,267.73 1462.39,290.50 C1460.79,295.92 1460.59,303.07 1460.26,364.75 ZM 1219.25 387.52 C1230.42,390.03 1247.29,387.69 1257.28,382.25 C1272.14,374.16 1279.91,353.59 1279.98,322.13 C1280.00,315.56 1279.81,314.83 1278.25,315.34 C1277.29,315.65 1273.81,316.87 1270.53,318.04 C1267.25,319.21 1256.90,321.73 1247.53,323.64 C1219.21,329.40 1209.00,333.20 1201.80,340.66 C1196.63,346.02 1194.71,351.13 1194.71,359.50 C1194.71,374.58 1202.83,383.85 1219.25,387.52 ZM 328.53 274.81 L 327.82 279.02 L 430.50 278.50 L 430.15 273.50 C429.35,262.05 422.74,248.87 413.30,239.88 C394.34,221.84 364.47,222.87 345.17,242.23 C336.85,250.57 330.54,262.94 328.53,274.81 Z" fill="rgb(0,0,0)"/>
<path d="M 0.49 334.16 C0.54,329.81 0.59,327.40 0.63,327.40 C0.64,327.40 0.64,327.43 0.65,327.50 C2.17,346.94 4.71,361.22 9.06,373.72 C6.07,365.24 3.98,356.18 2.48,345.53 C1.65,339.63 0.77,334.59 0.49,334.16 Z" fill="rgb(139,139,139)"/>
<path d="M 1850.43 476.25 C1851.05,479.07 1849.77,478.37 1841.92,471.58 C1832.65,463.56 1780.10,417.88 1766.00,405.59 C1760.22,400.55 1741.55,384.34 1724.50,369.57 C1707.45,354.79 1692.46,341.77 1691.19,340.63 L 1688.89 338.55 L 1683.20 341.52 C1676.57,345.00 1654.63,356.38 1612.00,378.46 C1579.33,395.39 1564.38,403.16 1548.50,411.50 C1506.81,433.39 1474.26,450.00 1473.07,450.00 C1472.43,450.00 1473.28,448.09 1474.97,445.75 C1478.37,441.03 1478.89,440.31 1501.46,409.38 C1510.24,397.34 1529.55,370.85 1544.37,350.50 C1559.19,330.15 1573.80,310.12 1576.83,306.00 C1579.87,301.88 1583.66,296.70 1585.25,294.50 C1586.84,292.30 1590.80,286.90 1594.05,282.50 C1597.30,278.10 1599.96,274.05 1599.96,273.50 C1599.97,272.95 1595.82,268.22 1590.74,262.99 C1583.33,255.37 1513.79,182.89 1485.25,153.04 C1481.81,149.45 1479.00,146.17 1479.00,145.75 C1479.00,145.34 1523.51,145.00 1577.91,145.00 L 1676.83 145.00 L 1701.16 114.37 C1714.55,97.52 1730.90,76.92 1737.50,68.59 C1781.59,12.94 1790.38,2.00 1790.99,2.00 C1791.36,2.00 1792.19,10.21 1792.83,20.25 C1794.86,52.32 1798.07,103.87 1799.30,124.50 L 1800.50 144.50 L 1998.79 145.50 L 1994.14 148.65 C1991.59,150.38 1976.22,160.55 1960.00,171.24 C1935.09,187.66 1863.24,235.20 1820.89,263.30 C1810.13,270.44 1809.31,271.21 1809.73,273.75 C1810.46,278.15 1815.01,300.91 1829.90,374.50 C1837.57,412.45 1845.25,450.48 1846.95,459.00 C1848.65,467.52 1850.22,475.29 1850.43,476.25 Z" fill="rgb(242,119,55)"/>
<path d="M 0.00 406.83 C0.00,366.59 0.21,333.88 0.47,334.14 C0.74,334.40 1.64,339.53 2.48,345.53 C4.75,361.68 8.39,374.17 14.44,386.50 C28.12,414.38 51.10,430.74 86.07,437.48 C97.64,439.71 123.83,440.54 138.20,439.12 C159.53,437.02 181.44,429.99 194.40,421.07 C214.17,407.47 225.60,389.04 232.29,360.00 C234.47,350.53 234.48,350.04 234.77,224.25 L 235.06 98.00 L 191.53 98.00 L 148.00 98.00 L 148.00 211.28 C148.00,283.70 147.63,327.54 146.96,332.85 C145.61,343.61 142.88,350.71 137.95,356.32 C132.67,362.32 126.93,364.50 116.50,364.49 C102.15,364.46 92.12,358.86 86.17,347.54 C83.58,342.61 83.51,342.02 83.18,320.75 L 82.83 299.00 L 41.42 299.00 L 0.00 299.00 L 0.00 149.50 L 0.00 0.00 L 1000.00 0.00 L 2000.00 0.00 L 2000.00 240.00 L 2000.00 480.00 L 1000.00 480.00 L 0.00 480.00 L 0.00 406.83 ZM 1850.43 476.25 C1850.22,475.29 1848.65,467.52 1846.95,459.00 C1845.25,450.48 1837.57,412.45 1829.90,374.50 C1815.01,300.91 1810.46,278.15 1809.73,273.75 C1809.31,271.21 1810.13,270.44 1820.89,263.30 C1863.24,235.20 1935.09,187.66 1960.00,171.24 C1976.22,160.55 1991.59,150.38 1994.14,148.65 L 1998.79 145.50 L 1899.64 145.00 L 1800.50 144.50 L 1799.30 124.50 C1798.07,103.87 1794.86,52.32 1792.83,20.25 C1792.19,10.21 1791.36,2.00 1790.99,2.00 C1790.38,2.00 1781.59,12.94 1737.50,68.59 C1730.90,76.92 1714.55,97.52 1701.16,114.37 L 1676.83 145.00 L 1577.91 145.00 C1523.51,145.00 1479.00,145.34 1479.00,145.75 C1479.00,146.17 1481.81,149.45 1485.25,153.04 C1513.79,182.89 1583.33,255.37 1590.74,262.99 C1595.82,268.22 1599.97,272.95 1599.96,273.50 C1599.96,274.05 1597.30,278.10 1594.05,282.50 C1590.80,286.90 1586.84,292.30 1585.25,294.50 C1583.66,296.70 1579.87,301.88 1576.83,306.00 C1573.80,310.12 1559.19,330.15 1544.37,350.50 C1529.55,370.85 1510.24,397.34 1501.46,409.38 C1478.89,440.31 1478.37,441.03 1474.97,445.75 C1473.28,448.09 1472.43,450.00 1473.07,450.00 C1474.26,450.00 1506.81,433.39 1548.50,411.50 C1564.38,403.16 1579.33,395.39 1612.00,378.46 C1654.63,356.38 1676.57,345.00 1683.20,341.52 L 1688.89 338.55 L 1691.19 340.63 C1692.46,341.77 1707.45,354.79 1724.50,369.57 C1741.55,384.34 1760.22,400.55 1766.00,405.59 C1780.10,417.88 1832.65,463.56 1841.92,471.58 C1849.77,478.37 1851.05,479.07 1850.43,476.25 ZM 416.40 437.06 C435.31,433.23 453.93,425.84 467.12,416.95 C480.78,407.74 494.29,392.44 501.52,378.00 C504.91,371.25 510.00,357.93 510.00,355.82 C510.00,355.37 492.49,355.00 471.10,355.00 L 432.19 355.00 L 429.17 360.35 C423.77,369.91 412.12,378.17 399.30,381.51 C391.88,383.44 376.06,383.42 368.46,381.47 C353.77,377.69 340.82,367.16 334.55,353.90 C331.12,346.65 328.00,334.75 328.00,328.93 L 328.00 326.00 L 421.03 326.00 C507.37,326.00 514.11,325.88 514.71,324.31 C515.83,321.40 513.10,285.93 511.00,276.12 C498.56,217.93 461.99,181.31 407.53,172.47 C393.74,170.24 367.61,170.52 354.52,173.04 C339.42,175.96 332.13,178.38 318.50,184.99 C267.01,209.99 238.60,262.57 244.95,321.13 C247.27,342.51 251.67,357.93 259.94,373.66 C279.30,410.48 314.59,432.93 362.67,439.01 C374.17,440.47 405.13,439.34 416.40,437.06 ZM 845.50 437.04 C871.68,432.01 893.42,422.10 907.85,408.63 C922.13,395.29 931.95,371.98 931.99,351.32 C932.02,330.59 922.01,309.82 906.05,297.54 C893.45,287.84 882.65,283.75 856.00,278.55 C817.72,271.08 811.63,269.78 803.67,267.42 C792.56,264.13 781.83,258.70 778.15,254.52 C770.24,245.50 773.13,234.06 784.64,228.87 C794.65,224.35 820.35,224.52 831.16,229.16 C838.34,232.25 843.53,238.42 845.01,245.62 C845.67,248.85 846.38,252.06 846.58,252.75 C846.86,253.72 855.31,254.00 884.50,254.00 C917.13,254.00 922.14,253.80 922.64,252.48 C922.96,251.65 922.70,247.39 922.06,243.01 C915.45,197.81 880.54,174.24 815.96,171.39 C767.30,169.24 724.46,182.72 704.75,206.39 C688.48,225.94 685.26,257.11 697.00,281.55 C700.12,288.05 702.42,291.09 708.88,297.26 C715.47,303.56 718.90,305.90 728.20,310.43 C739.54,315.96 756.34,321.34 772.17,324.50 C791.83,328.43 824.39,336.17 830.35,338.34 C842.50,342.75 848.43,349.73 848.33,359.51 C848.07,385.85 799.62,395.72 775.88,374.27 C770.90,369.77 766.48,361.22 765.53,354.25 L 764.81 349.00 L 725.26 349.00 L 685.70 349.00 L 686.34 356.75 C688.18,379.07 698.31,398.85 715.12,412.97 C731.01,426.30 758.03,436.23 786.00,439.02 C800.88,440.50 833.04,439.43 845.50,437.04 ZM 1216.03 438.96 C1238.86,436.17 1261.91,426.40 1275.77,413.64 C1278.12,411.48 1280.25,409.92 1280.51,410.18 C1280.77,410.44 1281.66,414.51 1282.48,419.23 C1283.30,423.95 1284.42,428.98 1284.96,430.40 L 1285.95 433.00 L 1326.92 433.00 C1349.45,433.00 1368.12,432.62 1368.40,432.16 C1368.69,431.69 1368.00,428.88 1366.87,425.91 C1365.74,422.93 1363.88,416.67 1362.75,412.00 C1360.78,403.90 1360.65,399.64 1360.01,322.00 C1359.28,234.24 1359.45,236.95 1353.89,222.00 C1340.87,186.98 1301.76,170.43 1236.50,172.32 C1202.04,173.32 1180.52,178.32 1160.00,190.10 C1149.07,196.38 1136.63,209.18 1131.15,219.78 C1126.31,229.14 1122.00,244.62 1122.00,252.64 L 1122.00 258.02 L 1160.14 257.76 C1192.85,257.54 1198.39,257.29 1199.05,256.00 C1199.48,255.18 1200.56,252.41 1201.45,249.86 C1205.20,239.19 1212.36,232.13 1223.35,228.30 C1231.20,225.56 1250.18,225.79 1259.57,228.73 C1267.98,231.37 1275.25,236.61 1278.01,242.01 C1280.92,247.71 1280.77,258.23 1277.69,264.09 C1273.20,272.65 1265.28,275.06 1222.00,281.03 C1165.67,288.79 1145.46,295.99 1128.22,314.43 C1118.34,324.99 1113.84,335.47 1111.85,352.56 C1108.49,381.47 1117.95,406.68 1137.93,422.11 C1156.68,436.58 1185.20,442.74 1216.03,438.96 ZM 676.50 434.19 L 682.50 433.50 L 682.76 402.74 L 683.03 371.99 L 667.26 372.23 C645.82,372.57 639.26,370.35 634.00,360.96 L 631.50 356.50 L 631.21 296.77 L 630.93 237.03 L 656.71 236.77 L 682.50 236.50 L 682.77 208.27 L 683.03 180.03 L 657.27 179.77 L 631.50 179.50 L 631.24 139.25 L 630.98 99.00 L 589.00 99.00 L 547.02 99.00 L 546.76 139.25 L 546.50 179.50 L 525.25 179.77 L 504.00 180.04 L 504.00 207.91 C504.00,232.41 504.19,235.86 505.58,236.39 C506.45,236.73 516.10,237.00 527.01,237.00 L 546.86 237.00 L 547.30 305.75 C547.77,379.13 547.90,381.16 553.04,396.63 C560.39,418.70 579.25,431.49 609.60,434.98 C617.91,435.93 666.23,435.36 676.50,434.19 ZM 1100.26 434.17 L 1106.03 433.50 L 1106.26 402.61 L 1106.50 371.73 L 1094.00 372.37 C1072.52,373.47 1062.19,370.29 1057.33,361.09 L 1055.00 356.69 L 1055.00 296.86 L 1055.00 237.03 L 1080.62 236.77 L 1106.23 236.50 L 1106.37 208.25 L 1106.50 180.00 L 1080.75 180.00 L 1055.00 180.00 L 1054.98 176.75 C1054.96,174.96 1054.97,156.74 1055.00,136.25 L 1055.05 99.00 L 1012.53 99.00 L 970.02 99.00 L 969.76 139.25 L 969.50 179.50 L 948.73 179.77 L 927.97 180.04 L 928.23 208.27 L 928.50 236.50 L 949.25 236.77 L 970.00 237.04 L 970.00 297.35 C970.00,374.59 971.24,387.56 980.29,405.21 C988.87,421.94 1005.85,431.62 1032.58,435.01 C1039.89,435.94 1090.46,435.31 1100.26,434.17 ZM 1460.26 364.75 C1460.59,303.07 1460.79,295.92 1462.39,290.50 C1469.10,267.73 1485.30,253.09 1508.98,248.40 C1518.17,246.58 1532.77,246.86 1542.82,249.04 C1545.74,249.68 1548.40,249.93 1548.73,249.61 C1549.77,248.56 1488.76,188.00 1486.67,188.00 C1485.56,188.00 1481.01,191.75 1476.05,196.75 C1469.30,203.56 1466.35,207.49 1462.72,214.50 L 1458.07 223.50 L 1458.03 201.25 L 1458.00 179.00 L 1417.50 179.00 L 1377.00 179.00 L 1377.00 306.00 L 1377.00 433.00 L 1418.45 433.00 L 1459.90 433.00 L 1460.26 364.75 ZM 328.53 274.81 C330.54,262.94 336.85,250.57 345.17,242.23 C364.47,222.87 394.34,221.84 413.30,239.88 C422.74,248.87 429.35,262.05 430.15,273.50 L 430.50 278.50 L 379.16 278.76 L 327.82 279.02 L 328.53 274.81 ZM 1219.25 387.52 C1202.83,383.85 1194.71,374.58 1194.71,359.50 C1194.71,351.13 1196.63,346.02 1201.80,340.66 C1209.00,333.20 1219.21,329.40 1247.53,323.64 C1256.90,321.73 1267.25,319.21 1270.53,318.04 C1273.81,316.87 1277.29,315.65 1278.25,315.34 C1279.81,314.83 1280.00,315.56 1279.98,322.13 C1279.91,353.59 1272.14,374.16 1257.28,382.25 C1247.29,387.69 1230.42,390.03 1219.25,387.52 Z" fill="rgb(254,254,254)"/>
</g>
</svg>