<svg xmlns="http://www.w3.org/2000/svg" width="2000" height="389" viewBox="0 0 2000 389">
<g>
<path d="M 702.00 316.09 C687.16,317.10 582.05,316.97 571.28,315.93 C535.24,312.45 504.05,299.22 484.04,278.95 C455.55,250.08 451.98,207.51 475.43,176.31 C498.37,145.79 540.23,128.81 593.00,128.60 C613.50,128.53 624.41,129.75 642.35,134.13 C671.77,141.31 694.21,154.25 709.75,173.00 C715.89,180.41 723.26,194.66 725.53,203.50 C727.59,211.54 727.59,227.95 725.52,235.91 C722.20,248.74 714.44,262.20 705.03,271.47 C702.26,274.20 700.00,276.78 700.00,277.21 C700.00,277.65 710.12,278.00 722.50,278.00 C734.88,278.00 745.00,278.21 745.00,278.46 C745.00,280.20 732.28,300.47 728.49,304.76 C721.42,312.79 715.91,315.14 702.00,316.09 ZM 2000.00 0.00 L 2000.00 389.00 L 1999.97 329.25 L 1999.95 269.50 L 1997.69 276.12 C1990.59,296.97 1967.64,310.05 1926.46,316.72 C1917.53,318.17 1909.39,318.50 1882.50,318.48 C1846.95,318.47 1831.14,317.26 1804.38,312.50 C1791.13,310.15 1767.26,304.60 1766.32,303.65 C1765.50,302.83 1775.53,268.32 1777.09,266.59 C1777.58,266.06 1784.01,267.17 1792.71,269.29 C1830.69,278.55 1865.26,281.95 1901.15,279.96 C1929.49,278.38 1941.62,275.56 1944.57,269.87 C1947.45,264.30 1946.79,263.52 1937.25,261.23 C1921.89,257.54 1909.10,255.15 1877.43,250.06 C1809.67,239.17 1791.66,234.04 1777.41,221.58 C1772.19,217.01 1766.77,208.14 1765.48,202.02 C1764.28,196.35 1764.75,186.82 1766.46,182.03 C1775.14,157.82 1802.97,144.67 1851.02,142.08 C1869.04,141.11 1908.69,142.16 1925.00,144.04 C1948.14,146.70 1989.48,154.17 1991.40,156.03 C1992.23,156.83 1984.65,189.33 1983.02,191.97 C1982.53,192.76 1979.61,192.49 1972.92,191.06 C1959.65,188.21 1935.21,184.38 1917.00,182.31 C1895.89,179.90 1847.57,179.87 1834.82,182.25 C1825.84,183.93 1821.31,185.71 1819.03,188.46 C1817.09,190.80 1819.22,194.77 1823.32,196.49 C1828.46,198.64 1852.66,203.39 1884.47,208.49 C1949.69,218.95 1966.72,223.21 1981.20,232.70 C1990.83,239.01 1997.04,247.57 1998.92,257.11 C1999.42,259.67 1999.83,207.03 1999.89,130.75 L 2000.00 0.00 ZM 1080.76 259.75 L 1080.50 316.50 L 1056.93 316.77 C1043.97,316.91 1033.06,316.73 1032.68,316.35 C1032.31,315.97 1032.00,276.37 1032.00,228.33 L 1032.00 141.00 L 1045.37 141.00 C1061.67,141.00 1074.27,143.05 1082.44,147.03 C1085.77,148.66 1093.72,154.38 1100.11,159.75 C1106.49,165.11 1121.09,177.38 1132.54,187.00 C1154.24,205.24 1167.23,216.16 1197.77,241.78 L 1215.98 257.06 L 1216.24 199.28 L 1216.50 141.50 L 1265.00 140.96 L 1265.00 317.00 L 1217.47 317.00 L 1183.48 288.42 C1164.79,272.70 1146.12,256.99 1142.00,253.50 C1137.88,250.01 1125.28,239.44 1114.00,230.00 C1102.72,220.56 1090.94,210.63 1087.82,207.92 C1084.69,205.21 1081.88,203.00 1081.58,203.00 C1081.27,203.00 1080.90,228.54 1080.76,259.75 ZM 807.66 300.04 L 797.81 317.00 L 771.91 317.00 C755.27,317.00 746.00,316.64 746.00,316.00 C746.00,314.84 747.23,312.68 791.32,236.50 C809.46,205.15 826.74,175.23 829.71,170.00 C840.69,150.70 853.47,142.47 875.50,140.50 C890.78,139.13 909.57,145.38 918.95,154.95 C921.95,158.00 928.75,168.75 938.93,186.54 C955.83,216.05 987.34,270.55 995.29,284.00 C998.05,288.67 1001.68,294.98 1003.34,298.00 C1005.01,301.02 1007.86,305.98 1009.68,309.00 C1011.50,312.02 1013.00,315.06 1013.00,315.75 C1013.00,317.70 961.65,317.54 959.82,315.59 C959.09,314.82 954.25,307.17 949.05,298.59 L 939.61 283.00 L 878.55 283.04 L 817.50 283.07 ZM 1541.70 309.75 L 1537.67 317.00 L 1511.83 317.00 C1493.15,317.00 1486.00,316.68 1486.00,315.86 C1486.00,314.79 1491.37,305.27 1517.22,260.50 C1522.93,250.60 1534.62,230.35 1543.18,215.50 C1571.99,165.54 1575.03,160.59 1580.23,155.30 C1590.15,145.20 1602.46,140.58 1619.50,140.58 C1642.31,140.58 1657.71,149.18 1667.86,167.59 C1672.77,176.48 1698.70,221.44 1709.05,239.00 C1731.88,277.75 1752.95,315.45 1752.18,316.22 C1751.70,316.70 1739.77,316.96 1725.67,316.80 L 1700.04 316.50 L 1698.27 314.01 C1697.30,312.64 1694.00,307.44 1690.94,302.45 C1687.89,297.46 1683.88,291.05 1682.03,288.19 L 1678.66 283.00 L 1617.58 283.02 L 1556.50 283.04 L 1551.12 292.77 C1548.16,298.12 1543.92,305.76 1541.70,309.75 ZM 1431.01 180.00 L 1430.50 316.50 L 1406.93 316.77 C1393.97,316.91 1383.06,316.73 1382.68,316.35 C1382.31,315.97 1382.00,285.14 1382.00,247.83 L 1382.00 180.00 L 1285.04 180.00 L 1284.48 177.75 C1284.18,176.51 1284.06,167.85 1284.21,158.50 L 1284.50 141.50 L 1528.00 140.99 L 1528.00 180.00 ZM 574.53 272.41 C608.88,277.75 646.47,267.36 663.49,247.82 C665.56,245.44 668.64,240.57 670.35,237.00 C673.01,231.43 673.45,229.35 673.48,222.50 C673.50,215.34 673.12,213.71 669.90,207.00 C664.60,195.95 657.34,189.20 643.50,182.43 C626.89,174.30 615.04,171.74 594.00,171.74 C580.61,171.74 575.62,172.15 567.50,173.96 C542.84,179.44 525.41,190.54 516.94,206.15 C513.70,212.13 513.50,213.06 513.50,222.05 C513.50,230.90 513.75,232.09 516.83,238.17 C525.23,254.71 548.15,268.31 574.53,272.41 ZM 1582.83 238.75 L 1577.86 248.00 L 1618.93 248.00 C1641.52,248.00 1660.00,247.78 1660.00,247.50 C1660.00,247.07 1651.28,231.05 1626.39,185.78 C1623.15,179.88 1620.15,175.04 1619.73,175.03 C1618.30,174.98 1608.11,191.61 1597.91,210.63 C1592.35,221.01 1585.56,233.66 1582.83,238.75 ZM 838.00 247.64 C838.00,247.84 856.45,248.00 879.00,248.00 C901.55,248.00 920.00,247.77 920.00,247.48 C920.00,247.19 918.95,245.28 917.66,243.23 C916.38,241.18 910.52,230.37 904.64,219.20 C893.90,198.80 885.21,184.07 880.62,178.50 C878.76,176.25 877.86,175.78 876.99,176.64 C875.95,177.65 838.00,246.77 838.00,247.64 Z" fill="rgb(50,50,50)"/>
<path d="M 0.00 0.00 L 1365.20 0.00 L 1000.60 0.00 C92.21,0.01 1.15,0.16 0.60,1.59 C0.27,2.46 0.00,89.98 0.00,196.08 Z" fill="rgb(195,168,167)"/>
<path d="M 530.47 374.75 L 544.41 389.00 L 74.11 389.00 C144.28,389.00 148.18,388.91 147.52,387.25 C143.68,377.59 129.14,339.32 115.70,303.50 C106.62,279.30 98.71,258.38 98.13,257.00 C97.54,255.62 88.00,230.43 76.92,201.00 C65.84,171.57 51.20,132.75 44.39,114.71 C37.57,96.68 32.00,81.17 32.00,80.25 C32.00,79.26 34.74,81.62 38.73,86.04 C51.77,100.50 72.99,118.89 90.00,130.47 C122.29,152.46 144.65,169.65 157.00,182.00 C176.66,201.65 190.03,227.27 195.87,256.50 C199.44,274.31 201.49,276.96 213.18,278.89 C226.70,281.11 253.36,288.08 271.19,294.06 C312.03,307.74 341.58,323.16 380.50,351.09 C388.80,357.04 393.00,359.40 393.00,358.11 C393.00,356.26 372.39,335.62 361.05,326.12 C331.84,301.65 298.96,282.00 253.70,261.99 C234.17,253.35 231.31,251.35 228.35,244.28 C227.61,242.51 227.00,238.42 227.00,235.18 C227.00,227.67 229.37,223.96 237.73,218.34 C246.39,212.52 252.37,210.52 274.82,205.99 C285.60,203.81 297.14,201.11 300.46,200.00 C307.36,197.69 318.20,191.91 318.75,190.25 C319.37,188.38 298.08,173.10 288.50,168.54 C277.69,163.39 267.18,159.19 263.03,158.36 C259.21,157.59 259.15,158.68 262.50,167.60 C263.88,171.25 265.00,175.05 265.00,176.05 C265.00,178.73 260.24,182.00 256.33,182.00 C251.52,182.00 246.83,179.28 236.50,170.49 C199.36,138.87 172.59,123.90 122.50,106.71 C71.10,89.06 54.97,81.02 38.98,65.06 C25.20,51.31 12.62,32.09 6.30,15.13 C4.33,9.83 2.10,4.61 1.36,3.53 C0.81,2.73 0.47,9.25 0.27,34.44 C0.37,13.99 0.48,1.91 0.60,1.59 C1.14,0.20 86.84,0.02 921.24,0.01 C453.97,0.05 90.29,0.31 90.29,0.63 L 90.29 0.63 C90.64,0.97 94.96,1.86 99.90,2.59 C133.71,7.61 170.29,22.73 198.50,43.31 C213.32,54.13 225.60,66.11 326.49,168.24 C383.69,226.13 449.84,293.08 473.51,317.00 C497.18,340.92 522.81,366.91 530.47,374.75 Z" fill="rgb(239,1,1)"/>
<path d="M 0.00 195.28 C0.00,31.83 0.21,1.86 1.36,3.53 C2.10,4.61 4.33,9.83 6.30,15.13 C12.62,32.09 25.20,51.31 38.98,65.06 C54.97,81.02 71.10,89.06 122.50,106.71 C172.59,123.90 199.36,138.87 236.50,170.49 C246.83,179.28 251.52,182.00 256.33,182.00 C260.24,182.00 265.00,178.73 265.00,176.05 C265.00,175.05 263.88,171.25 262.50,167.60 C259.15,158.68 259.21,157.59 263.03,158.36 C267.18,159.19 277.69,163.39 288.50,168.54 C298.08,173.10 319.37,188.38 318.75,190.25 C318.20,191.91 307.36,197.69 300.46,200.00 C297.14,201.11 285.60,203.81 274.82,205.99 C252.37,210.52 246.39,212.52 237.73,218.34 C229.37,223.96 227.00,227.67 227.00,235.18 C227.00,238.42 227.61,242.51 228.35,244.28 C231.31,251.35 234.17,253.35 253.70,261.99 C298.96,282.00 331.84,301.65 361.05,326.12 C372.39,335.62 393.00,356.26 393.00,358.11 C393.00,359.40 388.80,357.04 380.50,351.09 C341.58,323.16 312.03,307.74 271.19,294.06 C253.36,288.08 226.70,281.11 213.18,278.89 C201.49,276.96 199.44,274.31 195.87,256.50 C190.03,227.27 176.66,201.65 157.00,182.00 C144.65,169.65 122.29,152.46 90.00,130.47 C72.99,118.89 51.77,100.50 38.73,86.04 C34.74,81.62 32.00,79.26 32.00,80.25 C32.00,81.17 37.57,96.68 44.39,114.71 C51.20,132.75 65.84,171.57 76.92,201.00 C88.00,230.43 97.54,255.62 98.13,257.00 C98.71,258.38 106.62,279.30 115.70,303.50 C129.14,339.32 143.68,377.59 147.52,387.25 C148.18,388.91 144.28,389.00 74.11,389.00 L 0.00 389.00 L 0.00 195.28 ZM 530.47 374.75 C522.81,366.91 497.18,340.92 473.51,317.00 C449.84,293.08 383.69,226.13 326.49,168.24 C225.60,66.11 213.32,54.13 198.50,43.31 C170.29,22.73 133.71,7.61 99.90,2.59 C94.96,1.86 90.64,0.97 90.29,0.63 C89.95,0.28 519.49,0.00 1044.83,0.00 L 2000.00 0.00 L 1999.89 130.75 C1999.83,207.03 1999.42,259.67 1998.92,257.11 C1997.04,247.57 1990.83,239.01 1981.20,232.70 C1966.72,223.21 1949.69,218.95 1884.47,208.49 C1852.66,203.39 1828.46,198.64 1823.32,196.49 C1819.22,194.77 1817.09,190.80 1819.03,188.46 C1821.31,185.71 1825.84,183.93 1834.82,182.25 C1847.57,179.87 1895.89,179.90 1917.00,182.31 C1935.21,184.38 1959.65,188.21 1972.92,191.06 C1979.61,192.49 1982.53,192.76 1983.02,191.97 C1984.65,189.33 1992.23,156.83 1991.40,156.03 C1989.48,154.17 1948.14,146.70 1925.00,144.04 C1908.69,142.16 1869.04,141.11 1851.02,142.08 C1802.97,144.67 1775.14,157.82 1766.46,182.03 C1764.75,186.82 1764.28,196.35 1765.48,202.02 C1766.77,208.14 1772.19,217.01 1777.41,221.58 C1791.66,234.04 1809.67,239.17 1877.43,250.06 C1909.10,255.15 1921.89,257.54 1937.25,261.23 C1946.79,263.52 1947.45,264.30 1944.57,269.87 C1941.62,275.56 1929.49,278.38 1901.15,279.96 C1865.26,281.95 1830.69,278.55 1792.71,269.29 C1784.01,267.17 1777.58,266.06 1777.09,266.59 C1775.53,268.32 1765.50,302.83 1766.32,303.65 C1767.26,304.60 1791.13,310.15 1804.38,312.50 C1831.14,317.26 1846.95,318.47 1882.50,318.48 C1909.39,318.50 1917.53,318.17 1926.46,316.72 C1967.64,310.05 1990.59,296.97 1997.69,276.12 L 1999.95 269.50 L 1999.97 329.25 L 2000.00 389.00 L 1272.20 389.00 L 544.41 389.00 L 530.47 374.75 ZM 702.00 316.09 C715.91,315.14 721.42,312.79 728.49,304.76 C732.28,300.47 745.00,280.20 745.00,278.46 C745.00,278.21 734.88,278.00 722.50,278.00 C710.12,278.00 700.00,277.65 700.00,277.21 C700.00,276.78 702.26,274.20 705.03,271.47 C714.44,262.20 722.20,248.74 725.52,235.91 C727.59,227.95 727.59,211.54 725.53,203.50 C723.26,194.66 715.89,180.41 709.75,173.00 C694.21,154.25 671.77,141.31 642.35,134.13 C624.41,129.75 613.50,128.53 593.00,128.60 C540.23,128.81 498.37,145.79 475.43,176.31 C451.98,207.51 455.55,250.08 484.04,278.95 C504.05,299.22 535.24,312.45 571.28,315.93 C582.05,316.97 687.16,317.10 702.00,316.09 ZM 807.66 300.04 L 817.50 283.07 L 878.55 283.04 L 939.61 283.00 L 949.05 298.59 C954.25,307.17 959.09,314.82 959.82,315.59 C961.65,317.54 1013.00,317.70 1013.00,315.75 C1013.00,315.06 1011.50,312.02 1009.68,309.00 C1007.86,305.98 1005.01,301.02 1003.34,298.00 C1001.68,294.98 998.05,288.67 995.29,284.00 C987.34,270.55 955.83,216.05 938.93,186.54 C928.75,168.75 921.95,158.00 918.95,154.95 C909.57,145.38 890.78,139.13 875.50,140.50 C853.47,142.47 840.69,150.70 829.71,170.00 C826.74,175.23 809.46,205.15 791.32,236.50 C747.23,312.68 746.00,314.84 746.00,316.00 C746.00,316.64 755.27,317.00 771.91,317.00 L 797.81 317.00 L 807.66 300.04 ZM 1080.76 259.75 C1080.90,228.54 1081.27,203.00 1081.58,203.00 C1081.88,203.00 1084.69,205.21 1087.82,207.92 C1090.94,210.63 1102.72,220.56 1114.00,230.00 C1125.28,239.44 1137.88,250.01 1142.00,253.50 C1146.12,256.99 1164.79,272.70 1183.48,288.42 L 1217.47 317.00 L 1241.23 317.00 L 1265.00 317.00 L 1265.00 228.98 L 1265.00 140.96 L 1240.75 141.23 L 1216.50 141.50 L 1216.24 199.28 L 1215.98 257.06 L 1197.77 241.78 C1167.23,216.16 1154.24,205.24 1132.54,187.00 C1121.09,177.38 1106.49,165.11 1100.11,159.75 C1093.72,154.38 1085.77,148.66 1082.44,147.03 C1074.27,143.05 1061.67,141.00 1045.37,141.00 L 1032.00 141.00 L 1032.00 228.33 C1032.00,276.37 1032.31,315.97 1032.68,316.35 C1033.06,316.73 1043.97,316.91 1056.93,316.77 L 1080.50 316.50 L 1080.76 259.75 ZM 1430.76 248.25 L 1431.01 180.00 L 1479.51 180.00 L 1528.00 180.00 L 1528.00 160.50 L 1528.00 140.99 L 1406.25 141.25 L 1284.50 141.50 L 1284.21 158.50 C1284.06,167.85 1284.18,176.51 1284.48,177.75 L 1285.04 180.00 L 1333.52 180.00 L 1382.00 180.00 L 1382.00 247.83 C1382.00,285.14 1382.31,315.97 1382.68,316.35 C1383.06,316.73 1393.97,316.91 1406.93,316.77 L 1430.50 316.50 L 1430.76 248.25 ZM 1541.70 309.75 C1543.92,305.76 1548.16,298.12 1551.12,292.77 L 1556.50 283.04 L 1617.58 283.02 L 1678.66 283.00 L 1682.03 288.19 C1683.88,291.05 1687.89,297.46 1690.94,302.45 C1694.00,307.44 1697.30,312.64 1698.27,314.01 L 1700.04 316.50 L 1725.67 316.80 C1739.77,316.96 1751.70,316.70 1752.18,316.22 C1752.95,315.45 1731.88,277.75 1709.05,239.00 C1698.70,221.44 1672.77,176.48 1667.86,167.59 C1657.71,149.18 1642.31,140.58 1619.50,140.58 C1602.46,140.58 1590.15,145.20 1580.23,155.30 C1575.03,160.59 1571.99,165.54 1543.18,215.50 C1534.62,230.35 1522.93,250.60 1517.22,260.50 C1491.37,305.27 1486.00,314.79 1486.00,315.86 C1486.00,316.68 1493.15,317.00 1511.83,317.00 L 1537.67 317.00 L 1541.70 309.75 ZM 574.53 272.41 C548.15,268.31 525.23,254.71 516.83,238.17 C513.75,232.09 513.50,230.90 513.50,222.05 C513.50,213.06 513.70,212.13 516.94,206.15 C525.41,190.54 542.84,179.44 567.50,173.96 C575.62,172.15 580.61,171.74 594.00,171.74 C615.04,171.74 626.89,174.30 643.50,182.43 C657.34,189.20 664.60,195.95 669.90,207.00 C673.12,213.71 673.50,215.34 673.48,222.50 C673.45,229.35 673.01,231.43 670.35,237.00 C668.64,240.57 665.56,245.44 663.49,247.82 C646.47,267.36 608.88,277.75 574.53,272.41 ZM 838.00 247.64 C838.00,246.77 875.95,177.65 876.99,176.64 C877.86,175.78 878.76,176.25 880.62,178.50 C885.21,184.07 893.90,198.80 904.64,219.20 C910.52,230.37 916.38,241.18 917.66,243.23 C918.95,245.28 920.00,247.19 920.00,247.48 C920.00,247.77 901.55,248.00 879.00,248.00 C856.45,248.00 838.00,247.84 838.00,247.64 ZM 1582.83 238.75 C1585.56,233.66 1592.35,221.01 1597.91,210.63 C1608.11,191.61 1618.30,174.98 1619.73,175.03 C1620.15,175.04 1623.15,179.88 1626.39,185.78 C1651.28,231.05 1660.00,247.07 1660.00,247.50 C1660.00,247.78 1641.52,248.00 1618.93,248.00 L 1577.86 248.00 L 1582.83 238.75 Z" fill="rgb(254,254,254)"/>
</g>
</svg>