<svg viewBox="0 0 166.874 153.332" xmlns="http://www.w3.org/2000/svg" xmlns:xlink="http://www.w3.org/1999/xlink" width="166.874268" height="153.331787" fill="none" customFrame="#000000">
	<g id="plane">
		<g id="Group">
			<path id="Vector" d="M11.8292 0.735893C10.3932 0.233681 8.84904 -0.0163781 7.29267 0.000831622C3.26528 0.000831622 0 1.51503 0 3.38255C0 5.25007 3.26528 6.76322 7.29267 6.76322C8.84904 6.78017 10.3929 6.53037 11.8292 6.02946C12.5074 5.77783 12.9441 5.21539 12.9432 4.59532L12.9432 2.16926C12.9451 1.54893 12.5077 0.986738 11.8292 0.735893Z" fill="rgb(213,214,219)" fill-rule="nonzero" transform="matrix(0.779853,-0.496923,0.474928,0.815054,86.5999,92.1256)" />
			<path id="Vector" d="M8.57783 0.533317C7.53653 0.169311 6.41661 -0.0119092 5.28796 0.000606796C2.36837 0.000606796 0 1.0981 0 2.45113C0 3.80416 2.36868 4.90165 5.28796 4.90165C6.41661 4.91364 7.53621 4.73216 8.57783 4.36894C9.06916 4.18642 9.38549 3.77886 9.38486 3.32933L9.38486 1.57267C9.38642 1.12313 9.06979 0.71532 8.57783 0.533317Z" fill="rgb(213,214,219)" fill-rule="nonzero" transform="matrix(0.779854,-0.496918,0.474931,0.815051,81.3447,63.6819)" />
			<path id="Vector" d="M8.60005 0.227661C8.40837 0.080767 8.1579 -0.000260189 7.89774 1.18757e-06L1.03971 1.18757e-06C0.466543 -0.000782941 0.000941017 0.386841 2.93176e-06 0.866205C-0.000309763 0.975983 0.0243937 1.08497 0.0728614 1.18691L7.44902 16.8305L30.317 16.8305L8.60005 0.227661Z" fill="rgb(2,155,197)" fill-rule="nonzero" transform="matrix(0.779843,-0.496969,0.474916,0.815069,68.6584,65.0729)" />
			<path id="Vector" d="M110.534 15.0217L48.3907 15.0217L15.2817 9.04317L0 3.37253L0 0L103.045 0.880246C106.119 0.90074 109.133 1.59579 111.781 2.89542C112.937 3.47026 114.002 4.16356 114.951 4.95883C115.797 5.65688 116.518 6.4519 117.093 7.32016C117.731 8.29563 119.415 9.38357 119.446 10.5765C119.449 10.5762 118.353 15.3024 110.534 15.0217Z" fill="rgb(225,230,233)" fill-rule="nonzero" transform="matrix(0.780967,-0.49164,0.477664,0.811616,38.3513,101.851)" />
			<path id="Vector" d="M38.4163 0.690763L0.493404 18.751C-0.00873822 19.0233 -0.150986 19.5837 0.17533 20.0024C0.375576 20.2594 0.71807 20.4143 1.08529 20.414L7.93427 20.414C9.25174 20.4138 10.5555 20.1886 11.7649 19.7525L75.9949 0L38.4163 0.690763Z" fill="rgb(2,155,197)" fill-rule="nonzero" transform="matrix(0.780263,-0.49499,0.475882,0.813859,53.658,104.663)" />
			<path id="Vector" d="M8.19906 0.488735C7.93689 0.181985 7.51335 1.00702e-07 7.06223 1.00702e-07L1.39805 1.00702e-07C0.626429 -0.000264796 0.000634038 0.522114 0 1.16687C0 1.28952 0.0228254 1.41137 0.0681591 1.52793L6.23545 17.4533L22.8339 17.5961L8.19906 0.488735Z" fill="rgb(2,155,197)" fill-rule="nonzero" transform="matrix(0.7799,-0.496699,0.475148,0.814779,24.3552,88.7662)" />
			<path id="Vector" d="M11.5203 0L0.189178 4.58041C0.024527 4.64514 -0.0460811 4.80911 0.0315269 4.94644C0.0875264 5.04543 0.208656 5.10737 0.339829 5.10407L5.62996 5.10407C5.67104 5.10407 5.71213 5.09772 5.75048 5.08528L21.3238 0.00405909L11.5203 0Z" fill="rgb(2,155,197)" fill-rule="nonzero" transform="matrix(0.780367,-0.494498,0.47614,0.813535,32.6694,107.373)" />
			<path id="Vector" d="M8.35512 2.13753C7.37668 1.31369 6.27834 0.595744 5.08613 0C3.08185 0.804681 1.36509 2.03449 0.10688 3.5667C-0.115577 3.89292 0.0204338 4.3082 0.410817 4.49436C0.53227 4.55209 0.669215 4.5829 0.808948 4.58368L10.5636 4.58368C9.97088 3.68424 9.22729 2.86066 8.35512 2.13753Z" fill="rgb(2,155,197)" fill-rule="nonzero" transform="matrix(0.779918,-0.496613,0.475061,0.814888,122.165,52.1706)" />
			<path id="Vector" d="M0 0L6.36247 0L6.36247 9.69142L0 9.69142L0 0Z" fill="rgb(213,214,219)" fill-rule="nonzero" transform="matrix(0.780674,-0.493041,0.477393,0.811958,113.117,58.6712)" />
			<g id="Group">
				<path id="Vector" d="M1.39034 0C0.622721 0 0 0.517881 0 1.15687L0 2.19209C0.0259332 2.83054 0.669078 3.33062 1.4367 3.30904C2.16737 3.28827 2.7541 2.80033 2.77906 2.19209L2.77906 1.15687C2.77906 0.51842 2.15764 0.000539459 1.39034 0Z" fill="rgb(58,85,106)" fill-rule="nonzero" transform="matrix(0.779716,-0.493934,0.475559,0.813334,108.908,62.4702)" />
				<path id="Vector" d="M1.39034 0C0.622721 0 0 0.517881 0 1.15687L0 2.19209C0.0259332 2.83054 0.669078 3.33062 1.4367 3.30904C2.16737 3.28827 2.7541 2.80033 2.77906 2.19209L2.77906 1.15687C2.77874 0.51842 2.15732 0.000539459 1.39034 0Z" fill="rgb(58,85,106)" fill-rule="nonzero" transform="matrix(0.779716,-0.493934,0.475559,0.813334,104.443,65.2426)" />
				<path id="Vector" d="M1.38872 0C0.62142 0.000809175 0 0.518411 0 1.15685L0 2.19205C0.0259331 2.83049 0.669076 3.33056 1.43669 3.30899C2.16736 3.28822 2.75409 2.80028 2.77905 2.19205L2.77905 1.15685C2.77905 0.517872 2.15666 0 1.38872 0Z" fill="rgb(58,85,106)" fill-rule="nonzero" transform="matrix(0.779718,-0.49392,0.475567,0.813324,99.9789,68.0152)" />
				<path id="Vector" d="M1.38872 0C0.621422 0.000809188 0 0.51842 0 1.15687L0 2.19209C0.0259332 2.83054 0.669078 3.33062 1.4367 3.30904C2.16737 3.28827 2.7541 2.80033 2.77906 2.19209L2.77906 1.15687C2.77874 0.517881 2.15634 0 1.38872 0Z" fill="rgb(58,85,106)" fill-rule="nonzero" transform="matrix(0.779716,-0.493934,0.475559,0.813334,95.5145,70.7876)" />
				<path id="Vector" d="M1.38951 0C0.621778 0.000809587 0 0.518676 0 1.15744L0 2.19317C0 2.83166 0.622102 3.34926 1.38951 3.34926C2.15693 3.34926 2.77903 2.83166 2.77903 2.19317L2.77903 1.15744C2.78 0.518946 2.15855 0.000809587 1.39114 0C1.39049 0 1.39016 0 1.38951 0Z" fill="rgb(58,85,106)" fill-rule="nonzero" transform="matrix(0.779732,-0.493857,0.475606,0.813275,91.05,73.5605)" />
				<path id="Vector" d="M1.38951 0C0.621778 0.000809587 0 0.518676 0 1.15744L0 2.19317C0 2.83166 0.622102 3.34926 1.38951 3.34926C2.15693 3.34926 2.77903 2.83166 2.77903 2.19317L2.77903 1.15744C2.78 0.518946 2.15854 0.000809587 1.39113 0C1.39048 0 1.38984 0 1.38951 0Z" fill="rgb(58,85,106)" fill-rule="nonzero" transform="matrix(0.779732,-0.493857,0.475606,0.813275,86.5857,76.333)" />
				<path id="Vector" d="M1.38948 0C0.621765 0.000809568 0 0.518663 0 1.15741L0 2.19312C0.000973029 2.8316 0.624037 3.34837 1.39111 3.34756C2.15688 3.34675 2.77768 2.83025 2.77865 2.19312L2.77865 1.15741C2.77897 0.518663 2.15721 0.000539712 1.38948 0Z" fill="rgb(58,85,106)" fill-rule="nonzero" transform="matrix(0.779732,-0.493854,0.475608,0.813273,82.1211,79.1055)" />
				<path id="Vector" d="M1.38949 0C0.621767 0.000809581 0 0.518672 0 1.15743L0 2.19316C0.000973033 2.83165 0.624039 3.34843 1.39111 3.34762C2.15689 3.34681 2.77768 2.8303 2.77866 2.19316L2.77866 1.15743C2.77898 0.518672 2.15721 0.000539721 1.38949 0Z" fill="rgb(58,85,106)" fill-rule="nonzero" transform="matrix(0.779729,-0.493867,0.4756,0.813283,77.6565,81.878)" />
				<path id="Vector" d="M1.38948 0C0.621765 0.000809568 0 0.518663 0 1.15741L0 2.19312C0.000973029 2.8316 0.624037 3.34837 1.39111 3.34756C2.15688 3.34675 2.77768 2.83025 2.77865 2.19312L2.77865 1.15741C2.77865 0.518663 2.15688 0.000539712 1.38948 0Z" fill="rgb(58,85,106)" fill-rule="nonzero" transform="matrix(0.779732,-0.493854,0.475608,0.813273,73.1921,84.6504)" />
				<path id="Vector" d="M1.38949 0C0.622096 0 0 0.517596 0 1.15609L0 1.15743L0 2.19316C0.000973033 2.83165 0.624039 3.34843 1.39111 3.34762C2.15689 3.34681 2.77768 2.8303 2.77866 2.19316L2.77866 1.15743C2.77898 0.518672 2.15722 0.000539721 1.38949 0Z" fill="rgb(58,85,106)" fill-rule="nonzero" transform="matrix(0.779729,-0.493867,0.4756,0.813283,68.7263,87.4236)" />
				<path id="Vector" d="M1.3895 0C0.622098 0 0 0.51759 0 1.15607L0 1.15742L0 2.19313C0.000973043 2.83162 0.624046 3.34839 1.39113 3.34759C2.15691 3.34678 2.77771 2.83027 2.77869 2.19313L2.77869 1.15742C2.77869 0.518667 2.15691 0.000539716 1.3895 0Z" fill="rgb(58,85,106)" fill-rule="nonzero" transform="matrix(0.779734,-0.493846,0.475612,0.813267,64.2632,90.1953)" />
			</g>
		</g>
	</g>
</svg>
