<svg viewBox="0 0 100 35" xmlns="http://www.w3.org/2000/svg" xmlns:xlink="http://www.w3.org/1999/xlink" width="100.000000" height="35.000000" fill="none" customFrame="#000000">
	<g id="Play Store">
		<rect id="Rectangle 24" width="100.000000" height="35.000000" x="0.000000" y="0.000000" rx="17.500000" fill="rgb(8.46458,8.48711,8.5)" />
		<g id="apple (2) 1">
			<g id="Group">
				<path id="Vector" d="M21.789 23.9998C19.4077 23.9861 17.438 19.1251 17.438 16.6495C17.438 12.6057 20.4716 11.7203 21.6407 11.7203C22.1676 11.7203 22.7302 11.9273 23.2264 12.1103C23.5734 12.2381 23.9323 12.3699 24.1319 12.3699C24.2513 12.3699 24.5329 12.2578 24.7814 12.1593C25.3115 11.9483 25.9711 11.686 26.7393 11.686C26.7406 11.686 26.7425 11.686 26.7438 11.686C27.3174 11.686 29.0565 11.8119 30.102 13.382L30.3469 13.7501L29.9944 14.016C29.4909 14.396 28.5721 15.089 28.5721 16.4619C28.5721 18.0878 29.6126 18.7132 30.1125 19.0139C30.3332 19.1467 30.5616 19.2835 30.5616 19.5829C30.5616 19.7784 29.0015 23.9756 26.7361 23.9756C26.1817 23.9756 25.7899 23.809 25.4442 23.662C25.0945 23.5133 24.7928 23.3851 24.2943 23.3851C24.0416 23.3851 23.7221 23.5046 23.3838 23.6314C22.9216 23.8039 22.3983 23.9998 21.8046 23.9998L21.789 23.9998Z" fill="rgb(255,255,255)" fill-rule="nonzero" />
				<path id="Vector" d="M26.9795 8C27.0385 10.1274 25.5171 11.6033 23.9975 11.5107C23.7471 9.81297 25.5169 8 26.9795 8Z" fill="rgb(255,255,255)" fill-rule="nonzero" />
			</g>
		</g>
		<path id="Vector" d="M47.1523 13.0001L48.0523 13.0001L48.0523 8.62012L47.1523 8.62012L47.1523 13.0001ZM54.0077 13.0001L54.9077 13.0001L54.9077 8.62012L54.0077 8.62012L54.0077 13.0001ZM49.1609 9.73612C49.4549 9.73612 49.7009 9.49012 49.7009 9.19612C49.7009 8.90212 49.4549 8.65612 49.1609 8.65612C48.8669 8.65612 48.6209 8.90212 48.6209 9.19612C48.6209 9.49012 48.8669 9.73612 49.1609 9.73612ZM39.03 13.0001L40.08 13.0001L38.652 8.80012L37.428 8.80012L36 13.0001L37.05 13.0001L37.26 12.3401L38.82 12.3401L39.03 13.0001ZM52.0635 9.91612C51.6615 9.91612 51.3675 10.0541 51.1695 10.2821L51.1695 8.80012L50.2695 8.80012L50.2695 13.0001L51.1695 13.0001L51.1695 12.7181C51.3675 12.9461 51.6615 13.0841 52.0635 13.0841C52.8495 13.0841 53.4975 12.3941 53.4975 11.5001C53.4975 10.6061 52.8495 9.91612 52.0635 9.91612ZM73.1095 9.91612C72.7135 9.91612 72.4135 10.0601 72.2515 10.2821L72.2515 8.80012L71.3515 8.80012L71.3515 13.0001L72.2515 13.0001L72.2515 11.3621C72.2515 10.9361 72.4795 10.7441 72.8095 10.7441C73.0975 10.7441 73.3315 10.9181 73.3315 11.2901L73.3315 13.0001L74.2315 13.0001L74.2315 11.1581C74.2315 10.3481 73.7155 9.91612 73.1095 9.91612ZM70.8419 10.8641L70.8419 10.0001L70.2239 10.0001L70.2239 9.16012L69.3239 9.43012L69.3239 10.0001L68.8439 10.0001L68.8439 10.8641L69.3239 10.8641L69.3239 11.9261C69.3239 12.7661 69.6659 13.1201 70.8419 13.0001L70.8419 12.1841C70.4459 12.2081 70.2239 12.1841 70.2239 11.9261L70.2239 10.8641L70.8419 10.8641ZM37.548 11.4401L38.04 9.89812L38.532 11.4401L37.548 11.4401ZM45.592 10.0001L45.592 10.2821C45.394 10.0541 45.1 9.91612 44.698 9.91612C43.912 9.91612 43.264 10.6061 43.264 11.5001C43.264 12.3941 43.912 13.0841 44.698 13.0841C45.1 13.0841 45.394 12.9461 45.592 12.7181L45.592 13.0001L46.492 13.0001L46.492 10.0001L45.592 10.0001ZM56.3703 11.8601L58.5003 11.8601Q58.5363 11.6891 58.5363 11.5001C58.5363 10.5941 57.8883 9.91612 57.0123 9.91612C56.0643 9.91612 55.4163 10.6061 55.4163 11.5001C55.4163 12.3941 56.0523 13.0841 57.0783 13.0841C57.6483 13.0841 58.0923 12.8741 58.3863 12.4661L57.6663 12.0521C57.5463 12.1841 57.3363 12.2801 57.0903 12.2801C56.7603 12.2801 56.4843 12.1721 56.3703 11.8601ZM61.9868 13.0841C62.8688 13.0841 63.5768 12.3941 63.5768 11.5001C63.5768 10.6061 62.8688 9.91612 61.9868 9.91612C61.1048 9.91612 60.3968 10.6061 60.3968 11.5001C60.3968 12.3941 61.1048 13.0841 61.9868 13.0841ZM65.8439 9.91612C65.4479 9.91612 65.1479 10.0601 64.9859 10.2821L64.9859 10.0001L64.0859 10.0001L64.0859 13.0001L64.9859 13.0001L64.9859 11.3621C64.9859 10.9361 65.2139 10.7441 65.5439 10.7441C65.8319 10.7441 66.0659 10.9181 66.0659 11.2901L66.0659 13.0001L66.9659 13.0001L66.9659 11.1581C66.9659 10.3481 66.4499 9.91612 65.8439 9.91612ZM75.6535 11.8601L77.7835 11.8601C77.8075 11.7461 77.8195 11.6261 77.8195 11.5001C77.8195 10.5941 77.1715 9.91612 76.2955 9.91612C75.3475 9.91612 74.6995 10.6061 74.6995 11.5001C74.6995 12.3941 75.3355 13.0841 76.3615 13.0841C76.9315 13.0841 77.3755 12.8741 77.6695 12.4661L76.9495 12.0521C76.8295 12.1841 76.6195 12.2801 76.3735 12.2801C76.0435 12.2801 75.7675 12.1721 75.6535 11.8601ZM42.2049 10.0001L41.5809 11.9021L40.9569 10.0001L39.9609 10.0001L41.0709 13.0001L42.0909 13.0001L43.2009 10.0001L42.2049 10.0001ZM48.7109 13.0001L49.6109 13.0001L49.6109 10.0001L48.7109 10.0001L48.7109 13.0001ZM56.3523 11.1881C56.4363 10.8821 56.6643 10.7141 57.0063 10.7141C57.2763 10.7141 57.5463 10.8401 57.6423 11.1881L56.3523 11.1881ZM75.6355 11.1881C75.7195 10.8821 75.9475 10.7141 76.2895 10.7141C76.5595 10.7141 76.8295 10.8401 76.9255 11.1881L75.6355 11.1881ZM44.878 12.2321C44.464 12.2321 44.164 11.9501 44.164 11.5001C44.164 11.0501 44.464 10.7681 44.878 10.7681C45.292 10.7681 45.592 11.0501 45.592 11.5001C45.592 11.9501 45.292 12.2321 44.878 12.2321ZM51.8835 12.2321C51.4695 12.2321 51.1695 11.9501 51.1695 11.5001C51.1695 11.0501 51.4695 10.7681 51.8835 10.7681C52.2975 10.7681 52.5975 11.0501 52.5975 11.5001C52.5975 11.9501 52.2975 12.2321 51.8835 12.2321ZM61.9868 12.2081C61.5968 12.2081 61.2968 11.9261 61.2968 11.5001C61.2968 11.0741 61.5968 10.7921 61.9868 10.7921C62.3768 10.7921 62.6768 11.0741 62.6768 11.5001C62.6768 11.9261 62.3768 12.2081 61.9868 12.2081ZM55.8078 24.0001L57.3078 24.0001L57.3078 16.7001L55.8078 16.7001L55.8078 24.0001ZM69.2063 24.1401C70.7262 24.1401 71.8063 23.3401 71.8063 21.9901C71.8063 20.5101 70.6163 20.1401 69.5563 19.8201C68.4662 19.4901 68.2962 19.2701 68.2962 18.9501C68.2962 18.6701 68.5462 18.4201 69.0462 18.4201C69.6862 18.4201 70.0163 18.7301 70.2562 19.2301L71.6062 18.4401C71.0963 17.4101 70.1963 16.8601 69.0462 16.8601C67.8363 16.8601 66.6963 17.6401 66.6963 18.9901C66.6963 20.3301 67.7162 20.8301 68.7562 21.1201C69.8062 21.4101 70.2063 21.5801 70.2063 22.0101C70.2063 22.2801 70.0163 22.5801 69.2562 22.5801C68.4662 22.5801 68.0363 22.1901 67.7862 21.6101L66.4062 22.4101C66.7962 23.4401 67.7363 24.1401 69.2063 24.1401ZM41.05 24.0001L42.8 24.0001L40.42 17.0001L38.38 17.0001L36 24.0001L37.75 24.0001L38.1 22.9001L40.7 22.9001L41.05 24.0001ZM75.3394 20.4401L75.3394 19.0001L74.3094 19.0001L74.3094 17.6001L72.8094 18.0501L72.8094 19.0001L72.0094 19.0001L72.0094 20.4401L72.8094 20.4401L72.8094 22.2101C72.8094 23.6101 73.3794 24.2001 75.3394 24.0001L75.3394 22.6401C74.6794 22.6801 74.3094 22.6401 74.3094 22.2101L74.3094 20.4401L75.3394 20.4401ZM38.58 21.4001L39.4 18.8301L40.22 21.4001L38.58 21.4001ZM46.3369 18.8601C45.6669 18.8601 45.1769 19.0901 44.8469 19.4701L44.8469 19.0001L43.3469 19.0001L43.3469 26.0001L44.8469 26.0001L44.8469 23.5301C45.1769 23.9101 45.6669 24.1401 46.3369 24.1401C47.6469 24.1401 48.7269 22.9901 48.7269 21.5001C48.7269 20.0101 47.6469 18.8601 46.3369 18.8601ZM52.5673 18.8601C51.8973 18.8601 51.4073 19.0901 51.0773 19.4701L51.0773 19.0001L49.5773 19.0001L49.5773 26.0001L51.0773 26.0001L51.0773 23.5301C51.4073 23.9101 51.8973 24.1401 52.5673 24.1401C53.8773 24.1401 54.9573 22.9901 54.9573 21.5001C54.9573 20.0101 53.8773 18.8601 52.5673 18.8601ZM59.7455 22.1001L63.2955 22.1001C63.3355 21.9101 63.3555 21.7101 63.3555 21.5001C63.3555 19.9901 62.2755 18.8601 60.8155 18.8601C59.2355 18.8601 58.1555 20.0101 58.1555 21.5001C58.1555 22.9901 59.2155 24.1401 60.9255 24.1401C61.8755 24.1401 62.6155 23.7901 63.1055 23.1101L61.9055 22.4201C61.7055 22.6401 61.3555 22.8001 60.9455 22.8001C60.3955 22.8001 59.9355 22.6201 59.7455 22.1001ZM78.491 24.1401C79.961 24.1401 81.141 22.9901 81.141 21.5001C81.141 20.0101 79.961 18.8601 78.491 18.8601C77.021 18.8601 75.841 20.0101 75.841 21.5001C75.841 22.9901 77.021 24.1401 78.491 24.1401ZM86.8841 22.1001L90.4341 22.1001Q90.4941 21.8151 90.4941 21.5001C90.4941 19.9901 89.4141 18.8601 87.9541 18.8601C86.3741 18.8601 85.2941 20.0101 85.2941 21.5001C85.2941 22.9901 86.3541 24.1401 88.0641 24.1401C89.0141 24.1401 89.7541 23.7901 90.2441 23.1101L89.0441 22.4201C88.8441 22.6401 88.4941 22.8001 88.0841 22.8001C87.5341 22.8001 87.0741 22.6201 86.8841 22.1001ZM83.4895 19.8901L83.4895 19.0001L81.9895 19.0001L81.9895 24.0001L83.4895 24.0001L83.4895 21.7401C83.4895 20.7501 84.3695 20.5001 84.9895 20.6001L84.9895 18.9001C84.3595 18.9001 83.6895 19.2201 83.4895 19.8901ZM59.7155 20.9801C59.8555 20.4701 60.2355 20.1901 60.8055 20.1901C61.2555 20.1901 61.7055 20.4001 61.8655 20.9801L59.7155 20.9801ZM86.8541 20.9801C86.9941 20.4701 87.3741 20.1901 87.9441 20.1901C88.3941 20.1901 88.8441 20.4001 89.0041 20.9801L86.8541 20.9801ZM46.0369 22.7201C45.3469 22.7201 44.8469 22.2501 44.8469 21.5001C44.8469 20.7501 45.3469 20.2801 46.0369 20.2801C46.7269 20.2801 47.2269 20.7501 47.2269 21.5001C47.2269 22.2501 46.7269 22.7201 46.0369 22.7201ZM52.2673 22.7201C51.5773 22.7201 51.0773 22.2501 51.0773 21.5001C51.0773 20.7501 51.5773 20.2801 52.2673 20.2801C52.9573 20.2801 53.4573 20.7501 53.4573 21.5001C53.4573 22.2501 52.9573 22.7201 52.2673 22.7201ZM78.491 22.6801C77.841 22.6801 77.341 22.2101 77.341 21.5001C77.341 20.7901 77.841 20.3201 78.491 20.3201C79.141 20.3201 79.641 20.7901 79.641 21.5001C79.641 22.2101 79.141 22.6801 78.491 22.6801Z" fill="rgb(255,255,255)" fill-rule="evenodd" />
	</g>
</svg>
