<svg viewBox="0 0 61 61" xmlns="http://www.w3.org/2000/svg" xmlns:xlink="http://www.w3.org/1999/xlink" width="61.000000" height="61.000000" fill="none" customFrame="#000000">
	<defs>
		<g id="pixso_custom_effect_1">
			<effect x="0.000000" y="2.000000" visibility="visible" fill="rgb(0,0,0)" fill-opacity="0.100000001" effectType="dropShadow" showShadowBehind="1" stdDeviation="10" radius="0" />
		</g>
		<filter id="filter_1" width="61.000000" height="61.000000" x="0.000000" y="0.000000" filterUnits="userSpaceOnUse" customEffect="url(#pixso_custom_effect_1)" color-interpolation-filters="sRGB">
			<feFlood flood-opacity="0" result="BackgroundImageFix" />
			<feOffset dx="0.000000" dy="2.000000" in="SourceAlpha" />
			<feGaussianBlur stdDeviation="3.33333325" />
			<feColorMatrix type="matrix" values="0 0 0 0 0 0 0 0 0 0 0 0 0 0 0 0 0 0 0.1 0 " />
			<feBlend result="effect_dropShadow_1" in2="BackgroundImageFix" mode="normal" />
			<feBlend result="shape" in="SourceGraphic" in2="effect_dropShadow_1" mode="normal" />
		</filter>
	</defs>
	<g id="Social">
		<g filter="url(#filter_1)">
			<path id="Background" d="M30.5 49C41.8218 49 51 39.8218 51 28.5C51 17.1782 41.8218 8 30.5 8C19.1782 8 10 17.1782 10 28.5C10 39.8218 19.1782 49 30.5 49Z" fill="rgb(255,255,255)" fill-rule="evenodd" />
		</g>
		<path id="Facebook Icon" d="M33.1084 26.2445C32.7883 26.1432 32.4202 26.0757 32.0842 26.0757C31.6681 26.0757 30.7719 26.3626 30.7719 26.9195L30.7719 28.2527L32.9003 28.2527L32.9003 30.4971L30.7719 30.4971L30.7719 36.6905L28.6275 36.6905L28.6275 30.4971L27.5713 30.4971L27.5713 28.2527L28.6275 28.2527L28.6275 27.122C28.6275 25.4176 29.3636 24 31.14 24C31.7481 24 32.8363 24.0338 33.4284 24.2531L33.1084 26.2445Z" fill="rgb(8.46458,8.48711,8.5)" fill-rule="evenodd" />
	</g>
</svg>
