<svg viewBox="0 0 107 35" xmlns="http://www.w3.org/2000/svg" xmlns:xlink="http://www.w3.org/1999/xlink" width="107.000000" height="35.000000" fill="none" customFrame="#000000">
	<defs>
		<clipPath id="clipPath_0">
			<rect width="20.000000" height="20.000000" x="17.000000" y="7.000000" fill="rgb(255,255,255)" />
		</clipPath>
	</defs>
	<g id="Google Play">
		<rect id="Rectangle 23" width="107.000000" height="35.000000" x="0.000000" y="0.000000" rx="17.500000" fill="rgb(8.46458,8.48711,8.5)" />
		<g id="google-play 1" clip-path="url(#clipPath_0)" customFrame="url(#clipPath_0)">
			<rect id="google-play 1" width="20.000000" height="20.000000" x="17.000000" y="7.000000" fill="rgb(255,255,255)" fill-opacity="0" />
			<path id="Vector" d="M28.5075 17.0018L18.4639 26.673C17.9936 26.3516 17.7144 25.817 17.7193 25.2473L17.7193 8.75626C17.7144 8.18663 17.9936 7.65199 18.4639 7.33057L28.5075 17.0018Z" fill="rgb(33,150,243)" fill-rule="nonzero" />
			<path id="Vector" d="M32.0217 13.6236L28.5074 17.0018L18.4639 7.33053C18.5017 7.3012 18.5411 7.27392 18.5819 7.2488C19.1127 6.92708 19.7757 6.9167 20.3164 7.22156L32.0217 13.6236Z" fill="rgb(76,175,80)" fill-rule="nonzero" />
			<path id="Vector" d="M36.2806 17.0017C36.2872 17.6447 35.9377 18.2387 35.3725 18.5454L32.0217 20.3798L28.5073 17.0017L32.0217 13.6235L35.3725 15.4579C35.9377 15.7646 36.2872 16.3586 36.2806 17.0017Z" fill="rgb(240,187,31)" fill-rule="nonzero" />
			<path id="Vector" d="M32.0217 20.3801L20.3164 26.7822C19.7745 27.0823 19.114 27.0719 18.5819 26.7549C18.5411 26.7298 18.5017 26.7025 18.4639 26.6732L28.5074 17.002L32.0217 20.3801Z" fill="rgb(241,90,43)" fill-rule="nonzero" />
		</g>
		<path id="Vector" d="M48.0237 11.8801L45.2157 11.8801L45.2157 13.0001L46.7117 13.0001C46.5117 13.5361 46.0237 13.8641 45.2797 13.8641C44.1917 13.8641 43.5197 13.1681 43.5197 12.2161C43.5197 11.2321 44.2237 10.5361 45.1677 10.5361C45.7997 10.5361 46.3037 10.8241 46.5357 11.1921L47.6237 10.5681C47.1517 9.81609 46.2477 9.28809 45.1757 9.28809C43.5277 9.28809 42.2397 10.5841 42.2397 12.2081C42.2397 13.8161 43.5037 15.1121 45.2637 15.1121C46.8317 15.1121 48.0237 14.0721 48.0237 12.3601L48.0237 11.8801ZM67.7424 15.1121C69.3504 15.1121 70.6544 13.8481 70.6544 12.2001C70.6544 10.5521 69.3504 9.28809 67.7424 9.28809C66.1344 9.28809 64.8304 10.5521 64.8304 12.2001C64.8304 13.8481 66.1344 15.1121 67.7424 15.1121ZM49.6254 13.7681L49.6254 12.7761L51.6254 12.7761L51.6254 11.5601L49.6254 11.5601L49.6254 10.6321L53.2276 10.6321L53.2276 15.0001L54.5076 15.0001L54.5076 10.6321L55.9476 10.6321L55.9476 9.40009L48.3454 9.40009L48.3454 15.0001L51.8654 15.0001L51.8654 13.7681L49.6254 13.7681ZM57.7079 9.40009L57.7079 15.0001L58.9879 15.0001L58.9879 9.40009L57.7079 9.40009ZM63.3101 9.40009L59.1501 9.40009L59.1501 10.6321L60.5901 10.6321L60.5901 15.0001L61.8701 15.0001L61.8701 10.6321L63.3101 10.6321L63.3101 9.40009ZM74.0951 9.40009L74.0951 12.4401L71.9351 9.40009L70.9751 9.40009L70.9751 15.0001L72.2551 15.0001L72.2551 11.9601L74.4151 15.0001L75.3751 15.0001L75.3751 9.40009L74.0951 9.40009ZM67.7424 13.8641C66.8304 13.8641 66.1104 13.2001 66.1104 12.2001C66.1104 11.2001 66.8304 10.5361 67.7424 10.5361C68.6544 10.5361 69.3744 11.2001 69.3744 12.2001C69.3744 13.2001 68.6544 13.8641 67.7424 13.8641ZM48.0237 21.6081L48.0237 21.3921L45.2157 21.3921L45.2157 21.7921L47.5917 21.7921C47.5437 22.3361 47.3171 22.7868 46.9117 23.1441Q46.8285 23.2175 46.7383 23.2808L46.7382 23.2808Q46.169 23.6801 45.3197 23.6801Q44.5706 23.6801 44.0066 23.3569Q43.7334 23.2004 43.5037 22.9681Q43.2009 22.6584 43.0284 22.288Q42.7997 21.7973 42.7997 21.2001Q42.7997 20.5823 43.0416 20.0812Q43.2101 19.7323 43.4957 19.4401Q43.758 19.1719 44.0736 19.0035Q44.6051 18.7201 45.2877 18.7201Q45.7071 18.7201 46.0806 18.8508Q46.2915 18.9246 46.4877 19.0401Q46.8813 19.2682 47.1365 19.602Q47.2394 19.7365 47.3197 19.8881L47.6957 19.6641C47.4611 19.2534 47.1277 18.9254 46.6957 18.6801Q46.4702 18.5504 46.2287 18.4664Q45.7851 18.3121 45.2877 18.3121Q44.506 18.3121 43.8925 18.6334Q43.5141 18.8316 43.1997 19.1521Q42.8413 19.514 42.6388 19.9486Q42.3757 20.513 42.3757 21.2001Q42.3757 21.867 42.626 22.4209Q42.8321 22.8768 43.2077 23.2561Q43.5054 23.5538 43.8605 23.7449Q44.4977 24.0881 45.3197 24.0881Q46.2762 24.0881 46.9406 23.6476Q47.1209 23.5281 47.2797 23.3761Q47.6369 23.0304 47.8226 22.6092Q48.0237 22.153 48.0237 21.6081ZM52.8286 23.8534Q53.3064 23.6441 53.7024 23.2481Q54.1146 22.8319 54.3246 22.3309Q54.5424 21.8111 54.5424 21.2001Q54.5424 20.5794 54.3176 20.055Q54.1079 19.5656 53.7024 19.1601Q53.2994 18.7532 52.8116 18.5416Q52.2828 18.3121 51.6544 18.3121Q51.0259 18.3121 50.4971 18.5416Q50.0094 18.7532 49.6064 19.1601Q49.2009 19.5656 48.9911 20.055Q48.7664 20.5794 48.7664 21.2001Q48.7664 21.8111 48.9842 22.3309Q49.1941 22.8319 49.6064 23.2481Q50.0024 23.6441 50.4801 23.8534Q51.0159 24.0881 51.6544 24.0881Q52.2929 24.0881 52.8286 23.8534ZM59.3598 23.8534Q59.8376 23.6441 60.2336 23.2481Q60.6459 22.8319 60.8558 22.3309Q61.0736 21.8111 61.0736 21.2001Q61.0736 20.5794 60.8489 20.055Q60.6391 19.5656 60.2336 19.1601Q59.8306 18.7532 59.3429 18.5416Q58.8141 18.3121 58.1856 18.3121Q57.5572 18.3121 57.0284 18.5416Q56.5406 18.7532 56.1376 19.1601Q55.7321 19.5656 55.5224 20.055Q55.2976 20.5794 55.2976 21.2001Q55.2976 21.8111 55.5154 22.3309Q55.7254 22.8319 56.1376 23.2481Q56.5336 23.6441 57.0114 23.8534Q57.5471 24.0881 58.1856 24.0881Q58.8241 24.0881 59.3598 23.8534ZM67.4769 21.6081L67.4769 21.3921L64.6689 21.3921L64.6689 21.7921L67.0449 21.7921C66.9969 22.3361 66.7702 22.7868 66.3649 23.1441C65.9595 23.5014 65.4289 23.6801 64.7729 23.6801Q64.0237 23.6801 63.4597 23.3569Q63.1866 23.2004 62.9569 22.9681Q62.6541 22.6584 62.4815 22.288Q62.2529 21.7973 62.2529 21.2001Q62.2529 20.5823 62.4948 20.0812Q62.6632 19.7323 62.9489 19.4401C63.4182 18.9601 64.0155 18.7201 64.7409 18.7201C65.1782 18.7201 65.5782 18.8268 65.9409 19.0401C66.3089 19.2534 66.5862 19.5361 66.7729 19.8881L67.1489 19.6641C66.9142 19.2534 66.5809 18.9254 66.1489 18.6801C65.7222 18.4348 65.2529 18.3121 64.7409 18.3121Q63.9591 18.3121 63.3456 18.6334Q62.9672 18.8316 62.6529 19.1521Q62.2944 19.514 62.0919 19.9486Q61.8289 20.513 61.8289 21.2001Q61.8289 21.867 62.0792 22.4209Q62.2852 22.8768 62.6609 23.2561Q62.9586 23.5538 63.3136 23.7449Q63.9509 24.0881 64.7729 24.0881Q65.7293 24.0881 66.3937 23.6476Q66.5741 23.5281 66.7329 23.3761Q67.09 23.0304 67.2757 22.6092Q67.4769 22.153 67.4769 21.6081ZM71.6035 23.6001L68.9635 23.6001L68.9635 18.4001L68.5395 18.4001L68.5395 24.0001L71.6035 24.0001L71.6035 23.6001ZM75.7088 23.6001L72.9088 23.6001L72.9088 21.3761L75.4688 21.3761L75.4688 20.9761L72.9088 20.9761L72.9088 18.8001L75.6688 18.8001L75.6688 18.4001L72.4848 18.4001L72.4848 24.0001L75.7088 24.0001L75.7088 23.6001ZM82.0352 18.8961Q81.8457 18.7066 81.6189 18.5895Q81.2519 18.4001 80.7872 18.4001L78.8832 18.4001L78.8832 24.0001L79.3073 24.0001L79.3073 21.8641L80.7872 21.8641Q81.264 21.8641 81.6378 21.668Q81.8537 21.5547 82.0352 21.3761Q82.2336 21.1777 82.3527 20.9396Q82.5312 20.5825 82.5312 20.1361Q82.5312 19.6897 82.3527 19.3326Q82.2336 19.0945 82.0352 18.8961ZM86.6426 23.6001L84.0026 23.6001L84.0026 18.4001L83.5786 18.4001L83.5786 24.0001L86.6426 24.0001L86.6426 23.6001ZM90.9041 22.5761L91.4481 24.0001L91.8961 24.0001L89.7281 18.4001L89.2801 18.4001L87.1041 24.0001L87.5521 24.0001L88.0961 22.5761L90.9041 22.5761ZM93.8406 21.6961L95.8806 18.4001L95.4006 18.4001L93.6326 21.2881L91.8566 18.4001L91.3766 18.4001L93.4166 21.6961L93.4166 24.0001L93.8406 24.0001L93.8406 21.6961ZM50.6604 23.4832Q50.2459 23.3036 49.9024 22.9601Q49.5631 22.6131 49.3854 22.1972Q49.1904 21.7403 49.1904 21.2001C49.1904 20.5121 49.4277 19.9281 49.9024 19.4481Q50.2528 19.0937 50.6772 18.9119Q51.1247 18.7201 51.6544 18.7201Q52.1933 18.7201 52.645 18.9186Q53.0582 19.1003 53.3984 19.4481C53.8784 19.9281 54.1184 20.5121 54.1184 21.2001Q54.1184 21.7301 53.9284 22.18Q53.7486 22.606 53.3984 22.9601Q53.0651 23.2971 52.6618 23.4763Q52.2034 23.6801 51.6544 23.6801Q51.1147 23.6801 50.6604 23.4832ZM57.1916 23.4832Q56.7771 23.3036 56.4336 22.9601Q56.0943 22.6131 55.9167 22.1972Q55.7216 21.7403 55.7216 21.2001C55.7216 20.5121 55.959 19.9281 56.4336 19.4481Q56.7841 19.0937 57.2084 18.9119Q57.6559 18.7201 58.1856 18.7201Q58.7245 18.7201 59.1762 18.9186Q59.5894 19.1003 59.9296 19.4481C60.4096 19.9281 60.6496 20.5121 60.6496 21.2001C60.6496 21.8881 60.4096 22.4748 59.9296 22.9601Q59.5964 23.2971 59.193 23.4763Q58.7346 23.6801 58.1856 23.6801Q57.646 23.6801 57.1916 23.4832ZM81.7312 21.0881Q81.602 21.2201 81.4472 21.3058Q81.161 21.4641 80.7872 21.4641L79.3073 21.4641L79.3073 18.8001L80.7872 18.8001Q81.161 18.8001 81.4472 18.9584Q81.602 19.0441 81.7312 19.1761C81.9819 19.4268 82.1072 19.7468 82.1072 20.1361C82.1072 20.5201 81.9819 20.8374 81.7312 21.0881ZM90.7521 22.1761L88.2561 22.1761L89.5041 18.9201L90.7521 22.1761Z" fill="rgb(255,255,255)" fill-rule="evenodd" />
	</g>
</svg>
