<svg viewBox="0 0 97.0002 253" xmlns="http://www.w3.org/2000/svg" xmlns:xlink="http://www.w3.org/1999/xlink" width="97.000244" height="253.000122" fill="none" customFrame="#000000">
	<path id="Decore" d="M8.45816 13.7345C15.485 5.21807 33.2527 -7.87591 48.1094 7.87945C62.9661 23.6348 42.923 53.1229 31.0443 65.8975C25.1886 69.446 12.9754 75.4785 10.9677 71.2203C8.45816 65.8975 6.95241 54.7197 27.5309 45.1388C40.748 39.4612 69.2902 33.4287 77.7224 54.7197C81.5704 63.9459 82.2396 85.3788 54.1324 97.3018L18.9984 112.738M29.0367 178.208C39.075 186.298 60.6573 187.611 70.1937 187.256C95.8917 182.998 94.6202 161.707 90.7722 151.594C83.5446 134.135 46.6037 126.577 29.0367 124.98L28.0329 87.1886C32.8513 85.4853 52.1248 84.3498 61.1592 83.9949C98.5017 86.124 98.1336 111.496 93.2818 123.916C83.2435 141.374 46.2691 142.545 29.0367 140.948L29.0367 160.643C33.7212 162.949 49.0129 167.03 72.7033 164.901C96.3936 162.772 97.9663 140.948 95.7913 130.303C83.2435 109.544 76.9727 112.738 61.1592 109.012C48.5085 106.031 27.7808 110.254 18.9984 112.738C5.61398 113.274 -13.6261 106.892 16.4888 77.0753C26.0252 72.4623 49.1133 63.1297 65.1746 62.7039C74.3763 64.6556 92.0772 74.3075 89.2665 97.3018C89.6011 101.915 83.3439 113.377 55.6382 122.319C49.2806 123.738 35.0597 126.683 29.0367 127.109L7.45439 130.303L18.9984 112.738M29.0367 178.208C41.0827 186.724 65.6765 207.376 67.6841 221.854C68.5207 230.726 66.2788 249.213 50.619 252.194C46.6037 252.904 36.6658 252.833 29.0367 246.871L31.0443 198.966L29.0367 178.208L29.0367 140.948M29.0367 140.948C39.9115 143.61 63.8696 150.955 72.7033 159.046C83.4108 167.917 99.104 189.918 76.2167 206.951C69.0225 209.612 49.9163 211.741 31.0443 198.966" stroke="rgb(132,130,154)" stroke-width="1" />
</svg>
