<svg viewBox="0 0 153 166" xmlns="http://www.w3.org/2000/svg" xmlns:xlink="http://www.w3.org/1999/xlink" width="153.000000" height="166.000000" fill="none" customFrame="#000000">
	<g id="Group 5">
		<path id="+" d="M7.19727 152.13L11.5586 152.13L11.5586 154.01L7.19727 154.01L7.19727 158.951L5.19922 158.951L5.19922 154.01L0.837891 154.01L0.837891 152.13L5.19922 152.13L5.19922 147.564L7.19727 147.564L7.19727 152.13Z" fill="rgb(229,229,229)" fill-rule="nonzero" />
		<path id="+" d="M42.1973 117.13L46.5586 117.13L46.5586 119.01L42.1973 119.01L42.1973 123.951L40.1992 123.951L40.1992 119.01L35.8379 119.01L35.8379 117.13L40.1992 117.13L40.1992 112.564L42.1973 112.564L42.1973 117.13Z" fill="rgb(229,229,229)" fill-rule="nonzero" />
		<path id="+" d="M77.1973 12.1299L81.5586 12.1299L81.5586 14.0098L77.1973 14.0098L77.1973 18.9512L75.1992 18.9512L75.1992 14.0098L70.8379 14.0098L70.8379 12.1299L75.1992 12.1299L75.1992 7.56445L77.1973 7.56445L77.1973 12.1299Z" fill="rgb(229,229,229)" fill-rule="nonzero" />
		<path id="+" d="M77.1973 47.1299L81.5586 47.1299L81.5586 49.0098L77.1973 49.0098L77.1973 53.9512L75.1992 53.9512L75.1992 49.0098L70.8379 49.0098L70.8379 47.1299L75.1992 47.1299L75.1992 42.5645L77.1973 42.5645L77.1973 47.1299Z" fill="rgb(229,229,229)" fill-rule="nonzero" />
		<path id="+" d="M77.1973 82.1299L81.5586 82.1299L81.5586 84.0098L77.1973 84.0098L77.1973 88.9512L75.1992 88.9512L75.1992 84.0098L70.8379 84.0098L70.8379 82.1299L75.1992 82.1299L75.1992 77.5645L77.1973 77.5645L77.1973 82.1299Z" fill="rgb(98,70,229)" fill-rule="nonzero" />
		<path id="+" d="M77.1973 117.13L81.5586 117.13L81.5586 119.01L77.1973 119.01L77.1973 123.951L75.1992 123.951L75.1992 119.01L70.8379 119.01L70.8379 117.13L75.1992 117.13L75.1992 112.564L77.1973 112.564L77.1973 117.13Z" fill="rgb(229,229,229)" fill-rule="nonzero" />
		<path id="+" d="M77.1973 152.13L81.5586 152.13L81.5586 154.01L77.1973 154.01L77.1973 158.951L75.1992 158.951L75.1992 154.01L70.8379 154.01L70.8379 152.13L75.1992 152.13L75.1992 147.564L77.1973 147.564L77.1973 152.13Z" fill="rgb(229,229,229)" fill-rule="nonzero" />
		<path id="+" d="M112.197 12.1299L116.559 12.1299L116.559 14.0098L112.197 14.0098L112.197 18.9512L110.199 18.9512L110.199 14.0098L105.838 14.0098L105.838 12.1299L110.199 12.1299L110.199 7.56445L112.197 7.56445L112.197 12.1299Z" fill="rgb(229,229,229)" fill-rule="nonzero" />
		<path id="+" d="M112.197 47.1299L116.559 47.1299L116.559 49.0098L112.197 49.0098L112.197 53.9512L110.199 53.9512L110.199 49.0098L105.838 49.0098L105.838 47.1299L110.199 47.1299L110.199 42.5645L112.197 42.5645L112.197 47.1299Z" fill="rgb(229,229,229)" fill-rule="nonzero" />
		<path id="+" d="M112.197 82.1299L116.559 82.1299L116.559 84.0098L112.197 84.0098L112.197 88.9512L110.199 88.9512L110.199 84.0098L105.838 84.0098L105.838 82.1299L110.199 82.1299L110.199 77.5645L112.197 77.5645L112.197 82.1299Z" fill="rgb(229,229,229)" fill-rule="nonzero" />
		<path id="+" d="M112.197 117.13L116.559 117.13L116.559 119.01L112.197 119.01L112.197 123.951L110.199 123.951L110.199 119.01L105.838 119.01L105.838 117.13L110.199 117.13L110.199 112.564L112.197 112.564L112.197 117.13Z" fill="rgb(229,229,229)" fill-rule="nonzero" />
		<path id="+" d="M112.197 152.13L116.559 152.13L116.559 154.01L112.197 154.01L112.197 158.951L110.199 158.951L110.199 154.01L105.838 154.01L105.838 152.13L110.199 152.13L110.199 147.564L112.197 147.564L112.197 152.13Z" fill="rgb(229,229,229)" fill-rule="nonzero" />
		<path id="+" d="M147.197 12.1299L151.559 12.1299L151.559 14.0098L147.197 14.0098L147.197 18.9512L145.199 18.9512L145.199 14.0098L140.838 14.0098L140.838 12.1299L145.199 12.1299L145.199 7.56445L147.197 7.56445L147.197 12.1299Z" fill="rgb(255,113,82)" fill-rule="nonzero" />
		<path id="+" d="M147.197 47.1299L151.559 47.1299L151.559 49.0098L147.197 49.0098L147.197 53.9512L145.199 53.9512L145.199 49.0098L140.838 49.0098L140.838 47.1299L145.199 47.1299L145.199 42.5645L147.197 42.5645L147.197 47.1299Z" fill="rgb(229,229,229)" fill-rule="nonzero" />
		<path id="+" d="M147.197 82.1299L151.559 82.1299L151.559 84.0098L147.197 84.0098L147.197 88.9512L145.199 88.9512L145.199 84.0098L140.838 84.0098L140.838 82.1299L145.199 82.1299L145.199 77.5645L147.197 77.5645L147.197 82.1299Z" fill="rgb(229,229,229)" fill-rule="nonzero" />
		<path id="+" d="M147.197 117.13L151.559 117.13L151.559 119.01L147.197 119.01L147.197 123.951L145.199 123.951L145.199 119.01L140.838 119.01L140.838 117.13L145.199 117.13L145.199 112.564L147.197 112.564L147.197 117.13Z" fill="rgb(229,229,229)" fill-rule="nonzero" />
		<path id="+" d="M147.197 152.13L151.559 152.13L151.559 154.01L147.197 154.01L147.197 158.951L145.199 158.951L145.199 154.01L140.838 154.01L140.838 152.13L145.199 152.13L145.199 147.564L147.197 147.564L147.197 152.13Z" fill="rgb(229,229,229)" fill-rule="nonzero" />
	</g>
</svg>
